<svg viewBox="0 0 1000 880" xmlns="http://www.w3.org/2000/svg" width="1000" height="880">
  <defs><marker id="arrowhead_2036310954" markerWidth="8" markerHeight="6" refX="4" refY="3" orient="auto"><polygon points="0 0, 8 3, 0 6" fill="#4CAF50"/></marker><linearGradient id="mbTile_2036310954" x1="0" y1="0" x2="1" y2="1" gradientUnits="objectBoundingBox"><stop offset="0" stop-color="#5b9dff"/><stop offset=".42" stop-color="#3b82f6"/><stop offset=".74" stop-color="#6366f1"/><stop offset="1" stop-color="#7c5cff"/></linearGradient><linearGradient id="mbSheen_2036310954" x1="0" y1="0" x2="0" y2="1" gradientUnits="objectBoundingBox"><stop offset="0" stop-color="#ffffff" stop-opacity=".34"/><stop offset=".55" stop-color="#ffffff" stop-opacity="0"/></linearGradient><radialGradient id="mbGlow_2036310954" cx=".5" cy=".4" r=".65" gradientUnits="objectBoundingBox"><stop offset="0" stop-color="#ffffff" stop-opacity=".22"/><stop offset="1" stop-color="#ffffff" stop-opacity="0"/></radialGradient><linearGradient id="mbInk_2036310954" x1="0" y1="0" x2="0" y2="1" gradientUnits="objectBoundingBox"><stop offset="0" stop-color="#ffffff"/><stop offset="1" stop-color="#dbe7ff"/></linearGradient><linearGradient id="bb_laser_2036310954" x1="0" y1="0" x2="1" y2="0"><stop offset="0" stop-color="#5b9dff"/><stop offset="0.35" stop-color="#6366f1"/><stop offset="0.6" stop-color="#7c5cff"/><stop offset="0.92" stop-color="#7c5cff" stop-opacity="0"/></linearGradient><linearGradient id="bb_btn_2036310954" x1="0" y1="0" x2="1" y2="0"><stop offset="0" stop-color="#3b82f6"/><stop offset="1" stop-color="#7c5cff"/></linearGradient><linearGradient id="bb_btnsheen_2036310954" x1="0" y1="0" x2="0" y2="1"><stop offset="0" stop-color="#ffffff" stop-opacity="0.18"/><stop offset="0.55" stop-color="#ffffff" stop-opacity="0.02"/><stop offset="1" stop-color="#ffffff" stop-opacity="0"/></linearGradient><linearGradient id="mbTile_2036310954bb" x1="0" y1="0" x2="1" y2="1" gradientUnits="objectBoundingBox"><stop offset="0" stop-color="#5b9dff"/><stop offset=".42" stop-color="#3b82f6"/><stop offset=".74" stop-color="#6366f1"/><stop offset="1" stop-color="#7c5cff"/></linearGradient><linearGradient id="mbSheen_2036310954bb" x1="0" y1="0" x2="0" y2="1" gradientUnits="objectBoundingBox"><stop offset="0" stop-color="#ffffff" stop-opacity=".34"/><stop offset=".55" stop-color="#ffffff" stop-opacity="0"/></linearGradient><radialGradient id="mbGlow_2036310954bb" cx=".5" cy=".4" r=".65" gradientUnits="objectBoundingBox"><stop offset="0" stop-color="#ffffff" stop-opacity=".22"/><stop offset="1" stop-color="#ffffff" stop-opacity="0"/></radialGradient><linearGradient id="mbInk_2036310954bb" x1="0" y1="0" x2="0" y2="1" gradientUnits="objectBoundingBox"><stop offset="0" stop-color="#ffffff"/><stop offset="1" stop-color="#dbe7ff"/></linearGradient></defs>
  <!-- background -->
  <rect width="1000" height="880" fill="#0E1420"/>
  <!-- ghost watermark -->
  <text x="471.0" y="377.4" fill="#ffffff" fill-opacity="0.04" font-size="90" font-weight="bold" text-anchor="middle" dominant-baseline="middle">LNN</text>
  <!-- company logo overlay -->
  
  <!-- embedded volume (paneless, under candles) -->
  <rect x="16.2" y="588.5" width="4.0" height="35.5" fill="#4CAF50" opacity="0.28" stroke="none"/>
  <rect x="24.5" y="582.7" width="4.0" height="41.3" fill="#E23B3B" opacity="0.28" stroke="none"/>
  <rect x="32.8" y="589.7" width="4.0" height="34.3" fill="#E23B3B" opacity="0.28" stroke="none"/>
  <rect x="41.1" y="586.6" width="4.0" height="37.4" fill="#4CAF50" opacity="0.28" stroke="none"/>
  <rect x="49.5" y="593.5" width="4.0" height="30.5" fill="#E23B3B" opacity="0.28" stroke="none"/>
  <rect x="57.8" y="594.8" width="4.0" height="29.2" fill="#E23B3B" opacity="0.28" stroke="none"/>
  <rect x="66.1" y="585.4" width="4.0" height="38.6" fill="#E23B3B" opacity="0.28" stroke="none"/>
  <rect x="74.5" y="578.8" width="4.0" height="45.2" fill="#4CAF50" opacity="0.28" stroke="none"/>
  <rect x="82.8" y="583.8" width="4.0" height="40.2" fill="#E23B3B" opacity="0.28" stroke="none"/>
  <rect x="91.1" y="552.6" width="4.0" height="71.4" fill="#E23B3B" opacity="0.28" stroke="none"/>
  <rect x="99.4" y="583.9" width="4.0" height="40.1" fill="#E23B3B" opacity="0.28" stroke="none"/>
  <rect x="107.8" y="570.0" width="4.0" height="54.0" fill="#E23B3B" opacity="0.28" stroke="none"/>
  <rect x="116.1" y="562.9" width="4.0" height="61.1" fill="#E23B3B" opacity="0.28" stroke="none"/>
  <rect x="124.4" y="571.6" width="4.0" height="52.4" fill="#4CAF50" opacity="0.28" stroke="none"/>
  <rect x="132.8" y="591.9" width="4.0" height="32.1" fill="#E23B3B" opacity="0.28" stroke="none"/>
  <rect x="141.1" y="577.6" width="4.0" height="46.4" fill="#4CAF50" opacity="0.28" stroke="none"/>
  <rect x="149.4" y="580.8" width="4.0" height="43.2" fill="#4CAF50" opacity="0.28" stroke="none"/>
  <rect x="157.7" y="581.7" width="4.0" height="42.3" fill="#4CAF50" opacity="0.28" stroke="none"/>
  <rect x="166.1" y="571.7" width="4.0" height="52.3" fill="#4CAF50" opacity="0.28" stroke="none"/>
  <rect x="174.4" y="579.7" width="4.0" height="44.3" fill="#E23B3B" opacity="0.28" stroke="none"/>
  <rect x="182.7" y="570.3" width="4.0" height="53.7" fill="#4CAF50" opacity="0.28" stroke="none"/>
  <rect x="191.0" y="583.3" width="4.0" height="40.7" fill="#4CAF50" opacity="0.28" stroke="none"/>
  <rect x="199.4" y="538.9" width="4.0" height="85.1" fill="#E23B3B" opacity="0.28" stroke="none"/>
  <rect x="207.7" y="572.6" width="4.0" height="51.4" fill="#E23B3B" opacity="0.28" stroke="none"/>
  <rect x="216.0" y="566.9" width="4.0" height="57.1" fill="#4CAF50" opacity="0.28" stroke="none"/>
  <rect x="224.4" y="565.1" width="4.0" height="58.9" fill="#4CAF50" opacity="0.28" stroke="none"/>
  <rect x="232.7" y="584.6" width="4.0" height="39.4" fill="#4CAF50" opacity="0.28" stroke="none"/>
  <rect x="241.0" y="580.8" width="4.0" height="43.2" fill="#E23B3B" opacity="0.28" stroke="none"/>
  <rect x="249.3" y="575.0" width="4.0" height="49.0" fill="#E23B3B" opacity="0.28" stroke="none"/>
  <rect x="257.7" y="578.0" width="4.0" height="46.0" fill="#4CAF50" opacity="0.28" stroke="none"/>
  <rect x="266.0" y="596.5" width="4.0" height="27.5" fill="#4CAF50" opacity="0.28" stroke="none"/>
  <rect x="274.3" y="584.3" width="4.0" height="39.7" fill="#E23B3B" opacity="0.28" stroke="none"/>
  <rect x="282.6" y="592.4" width="4.0" height="31.6" fill="#4CAF50" opacity="0.28" stroke="none"/>
  <rect x="291.0" y="601.2" width="4.0" height="22.8" fill="#4CAF50" opacity="0.28" stroke="none"/>
  <rect x="299.3" y="576.4" width="4.0" height="47.6" fill="#E23B3B" opacity="0.28" stroke="none"/>
  <rect x="307.6" y="589.0" width="4.0" height="35.0" fill="#4CAF50" opacity="0.28" stroke="none"/>
  <rect x="316.0" y="569.8" width="4.0" height="54.2" fill="#4CAF50" opacity="0.28" stroke="none"/>
  <rect x="324.3" y="535.6" width="4.0" height="88.4" fill="#4CAF50" opacity="0.28" stroke="none"/>
  <rect x="332.6" y="585.0" width="4.0" height="39.0" fill="#E23B3B" opacity="0.28" stroke="none"/>
  <rect x="340.9" y="599.0" width="4.0" height="25.0" fill="#4CAF50" opacity="0.28" stroke="none"/>
  <rect x="349.3" y="596.4" width="4.0" height="27.6" fill="#4CAF50" opacity="0.28" stroke="none"/>
  <rect x="357.6" y="599.3" width="4.0" height="24.7" fill="#4CAF50" opacity="0.28" stroke="none"/>
  <rect x="365.9" y="514.4" width="4.0" height="109.6" fill="#4CAF50" opacity="0.28" stroke="none"/>
  <rect x="374.3" y="579.8" width="4.0" height="44.2" fill="#E23B3B" opacity="0.28" stroke="none"/>
  <rect x="382.6" y="577.1" width="4.0" height="46.9" fill="#E23B3B" opacity="0.28" stroke="none"/>
  <rect x="390.9" y="583.7" width="4.0" height="40.3" fill="#E23B3B" opacity="0.28" stroke="none"/>
  <rect x="399.2" y="532.9" width="4.0" height="91.1" fill="#E23B3B" opacity="0.28" stroke="none"/>
  <rect x="407.6" y="546.7" width="4.0" height="77.3" fill="#E23B3B" opacity="0.28" stroke="none"/>
  <rect x="415.9" y="579.8" width="4.0" height="44.2" fill="#E23B3B" opacity="0.28" stroke="none"/>
  <rect x="424.2" y="576.7" width="4.0" height="47.3" fill="#E23B3B" opacity="0.28" stroke="none"/>
  <rect x="432.5" y="592.5" width="4.0" height="31.5" fill="#E23B3B" opacity="0.28" stroke="none"/>
  <rect x="440.9" y="587.5" width="4.0" height="36.5" fill="#4CAF50" opacity="0.28" stroke="none"/>
  <rect x="449.2" y="594.0" width="4.0" height="30.0" fill="#4CAF50" opacity="0.28" stroke="none"/>
  <rect x="457.5" y="589.9" width="4.0" height="34.1" fill="#E23B3B" opacity="0.28" stroke="none"/>
  <rect x="465.9" y="593.6" width="4.0" height="30.4" fill="#E23B3B" opacity="0.28" stroke="none"/>
  <rect x="474.2" y="598.6" width="4.0" height="25.4" fill="#4CAF50" opacity="0.28" stroke="none"/>
  <rect x="482.5" y="599.1" width="4.0" height="24.9" fill="#E23B3B" opacity="0.28" stroke="none"/>
  <rect x="490.8" y="591.4" width="4.0" height="32.6" fill="#4CAF50" opacity="0.28" stroke="none"/>
  <rect x="499.2" y="595.8" width="4.0" height="28.2" fill="#E23B3B" opacity="0.28" stroke="none"/>
  <rect x="507.5" y="603.3" width="4.0" height="20.7" fill="#4CAF50" opacity="0.28" stroke="none"/>
  <rect x="515.8" y="592.9" width="4.0" height="31.1" fill="#E23B3B" opacity="0.28" stroke="none"/>
  <rect x="524.1" y="599.3" width="4.0" height="24.7" fill="#E23B3B" opacity="0.28" stroke="none"/>
  <rect x="532.5" y="598.3" width="4.0" height="25.7" fill="#4CAF50" opacity="0.28" stroke="none"/>
  <rect x="540.8" y="594.9" width="4.0" height="29.1" fill="#E23B3B" opacity="0.28" stroke="none"/>
  <rect x="549.1" y="590.6" width="4.0" height="33.4" fill="#E23B3B" opacity="0.28" stroke="none"/>
  <rect x="557.5" y="598.1" width="4.0" height="25.9" fill="#E23B3B" opacity="0.28" stroke="none"/>
  <rect x="565.8" y="597.0" width="4.0" height="27.0" fill="#4CAF50" opacity="0.28" stroke="none"/>
  <rect x="574.1" y="599.7" width="4.0" height="24.3" fill="#4CAF50" opacity="0.28" stroke="none"/>
  <rect x="582.4" y="599.6" width="4.0" height="24.4" fill="#4CAF50" opacity="0.28" stroke="none"/>
  <rect x="590.8" y="593.3" width="4.0" height="30.7" fill="#E23B3B" opacity="0.28" stroke="none"/>
  <rect x="599.1" y="598.6" width="4.0" height="25.4" fill="#4CAF50" opacity="0.28" stroke="none"/>
  <rect x="607.4" y="601.4" width="4.0" height="22.6" fill="#4CAF50" opacity="0.28" stroke="none"/>
  <rect x="615.7" y="594.6" width="4.0" height="29.4" fill="#E23B3B" opacity="0.28" stroke="none"/>
  <rect x="624.1" y="600.2" width="4.0" height="23.8" fill="#E23B3B" opacity="0.28" stroke="none"/>
  <rect x="632.4" y="588.9" width="4.0" height="35.1" fill="#4CAF50" opacity="0.28" stroke="none"/>
  <rect x="640.7" y="601.1" width="4.0" height="22.9" fill="#E23B3B" opacity="0.28" stroke="none"/>
  <rect x="649.1" y="611.7" width="4.0" height="12.3" fill="#4CAF50" opacity="0.28" stroke="none"/>
  <rect x="657.4" y="606.7" width="4.0" height="17.3" fill="#E23B3B" opacity="0.28" stroke="none"/>
  <rect x="665.7" y="602.6" width="4.0" height="21.4" fill="#E23B3B" opacity="0.28" stroke="none"/>
  <rect x="674.0" y="587.6" width="4.0" height="36.4" fill="#4CAF50" opacity="0.28" stroke="none"/>
  <rect x="682.4" y="592.2" width="4.0" height="31.8" fill="#4CAF50" opacity="0.28" stroke="none"/>
  <rect x="690.7" y="584.9" width="4.0" height="39.1" fill="#E23B3B" opacity="0.28" stroke="none"/>
  <rect x="699.0" y="584.6" width="4.0" height="39.4" fill="#E23B3B" opacity="0.28" stroke="none"/>
  <rect x="707.4" y="596.8" width="4.0" height="27.2" fill="#E23B3B" opacity="0.28" stroke="none"/>
  <rect x="715.7" y="599.3" width="4.0" height="24.7" fill="#E23B3B" opacity="0.28" stroke="none"/>
  <rect x="724.0" y="572.2" width="4.0" height="51.8" fill="#4CAF50" opacity="0.28" stroke="none"/>
  <rect x="732.3" y="596.7" width="4.0" height="27.3" fill="#E23B3B" opacity="0.28" stroke="none"/>
  <rect x="740.7" y="586.7" width="4.0" height="37.3" fill="#4CAF50" opacity="0.28" stroke="none"/>
  <rect x="749.0" y="599.8" width="4.0" height="24.2" fill="#4CAF50" opacity="0.28" stroke="none"/>
  <rect x="757.3" y="581.2" width="4.0" height="42.8" fill="#4CAF50" opacity="0.28" stroke="none"/>
  <!-- SMA overlays -->
  <polyline points="18.2,305.9 26.5,314.4 34.8,323.0 43.1,330.4 51.5,339.1 59.8,348.0 68.1,357.2 76.5,364.9 84.8,372.6 93.1,381.2 101.4,390.3 109.8,399.8 118.1,409.4 126.4,419.4 134.7,428.3 143.1,435.7 151.4,442.8 159.7,449.5 168.1,455.0 176.4,460.7 184.7,465.8 193.0,468.2 201.4,470.4 209.7,472.9 218.0,474.6 226.4,475.0 234.7,476.7 243.0,478.5 251.3,481.2 259.7,483.6 268.0,484.6 276.3,486.2 284.6,487.6 293.0,488.1 301.3,483.8 309.6,479.0 318.0,475.3 326.3,471.4 334.6,469.5 342.9,466.8 351.3,464.0 359.6,459.5 367.9,453.1 376.2,446.7 384.6,441.1 392.9,436.4 401.2,430.9 409.6,427.5 417.9,425.7 426.2,424.7 434.5,424.3 442.9,423.2 451.2,421.2 459.5,419.9 467.9,418.3 476.2,415.5 484.5,413.3 492.8,413.5 501.2,413.4 509.5,411.7 517.8,410.0 526.1,407.8 534.5,404.5 542.8,401.3 551.1,398.8 559.5,397.9 567.8,397.2 576.1,395.5 584.4,392.5 592.8,390.5 601.1,389.1 609.4,387.4 617.7,385.6 626.1,383.6 634.4,381.6 642.7,381.2 651.1,380.6 659.4,380.4 667.7,380.6 676.0,380.0 684.4,379.3 692.7,378.0 701.0,377.3 709.4,377.6 717.7,377.7 726.0,378.2 734.3,378.9 742.7,380.2 751.0,380.7 759.3,379.7" fill="none" stroke="#F59E0B" stroke-width="1.6" opacity="0.92" stroke-linejoin="round"/>
  <!-- M2 overlays: AVWAP + POC (over SMA, under candles) -->
  <rect x="14.0" y="327.2" width="914.0" height="192.6" fill="#5b9dff" fill-opacity="0.06" stroke="none"/><line x1="14.0" y1="327.2" x2="928.0" y2="327.2" stroke="#5b9dff" stroke-width="1" stroke-opacity="0.32"/><line x1="920.0" y1="327.2" x2="928.0" y2="327.2" stroke="#5b9dff" stroke-width="1.5" stroke-opacity="0.7"/><line x1="14.0" y1="519.9" x2="928.0" y2="519.9" stroke="#5b9dff" stroke-width="1" stroke-opacity="0.32"/><line x1="920.0" y1="519.9" x2="928.0" y2="519.9" stroke="#5b9dff" stroke-width="1.5" stroke-opacity="0.7"/><line x1="14.0" y1="396.0" x2="928.0" y2="396.0" stroke="#5b9dff" stroke-width="1.5" stroke-dasharray="6 4" opacity="0.85"/><rect x="911.3" y="574.9" width="16.7" height="26.5" fill="#54607d" fill-opacity="0.34" stroke="none"/><rect x="895.2" y="547.4" width="32.8" height="26.5" fill="#54607d" fill-opacity="0.34" stroke="none"/><rect x="827.7" y="519.9" width="100.3" height="26.5" fill="#54607d" fill-opacity="0.34" stroke="none"/><rect x="831.4" y="492.3" width="96.6" height="26.5" fill="#5b9dff" fill-opacity="0.50" stroke="none"/><rect x="787.8" y="464.8" width="140.2" height="26.5" fill="#5b9dff" fill-opacity="0.50" stroke="none"/><rect x="862.3" y="437.3" width="65.7" height="26.5" fill="#5b9dff" fill-opacity="0.50" stroke="none"/><rect x="787.7" y="409.8" width="140.3" height="26.5" fill="#5b9dff" fill-opacity="0.50" stroke="none"/><rect x="776.6" y="382.3" width="151.4" height="26.5" fill="#5b9dff" fill-opacity="0.50" stroke="none"/><rect x="801.6" y="354.8" width="126.4" height="26.5" fill="#5b9dff" fill-opacity="0.50" stroke="none"/><rect x="825.3" y="327.2" width="102.7" height="26.5" fill="#5b9dff" fill-opacity="0.50" stroke="none"/><rect x="908.7" y="299.7" width="19.3" height="26.5" fill="#54607d" fill-opacity="0.34" stroke="none"/><rect x="912.9" y="272.2" width="15.1" height="26.5" fill="#54607d" fill-opacity="0.34" stroke="none"/><rect x="898.4" y="244.7" width="29.6" height="26.5" fill="#54607d" fill-opacity="0.34" stroke="none"/><rect x="869.8" y="217.2" width="58.2" height="26.5" fill="#54607d" fill-opacity="0.34" stroke="none"/><rect x="913.7" y="189.7" width="14.3" height="26.5" fill="#54607d" fill-opacity="0.34" stroke="none"/><rect x="918.3" y="162.1" width="9.7" height="26.5" fill="#54607d" fill-opacity="0.34" stroke="none"/><rect x="923.9" y="134.6" width="4.1" height="26.5" fill="#54607d" fill-opacity="0.34" stroke="none"/><rect x="924.5" y="79.6" width="3.5" height="26.5" fill="#54607d" fill-opacity="0.34" stroke="none"/>
  <!-- candlesticks -->
  <line x1="18.2" y1="474.3" x2="18.2" y2="507.8" stroke="#4CAF50" stroke-width="1"/>
  <rect x="16.2" y="480.8" width="4.0" height="18.2" fill="#4CAF50" stroke="none"/>
  <line x1="26.5" y1="465.3" x2="26.5" y2="524.1" stroke="#E23B3B" stroke-width="1"/>
  <rect x="24.5" y="465.3" width="4.0" height="8.2" fill="#E23B3B" stroke="none"/>
  <line x1="34.8" y1="445.7" x2="34.8" y2="505.1" stroke="#E23B3B" stroke-width="1"/>
  <rect x="32.8" y="483.9" width="4.0" height="9.5" fill="#E23B3B" stroke="none"/>
  <line x1="43.1" y1="453.6" x2="43.1" y2="501.8" stroke="#4CAF50" stroke-width="1"/>
  <rect x="41.1" y="454.6" width="4.0" height="44.6" fill="#4CAF50" stroke="none"/>
  <line x1="51.5" y1="447.3" x2="51.5" y2="486.0" stroke="#E23B3B" stroke-width="1"/>
  <rect x="49.5" y="453.9" width="4.0" height="6.0" fill="#E23B3B" stroke="none"/>
  <line x1="59.8" y1="457.4" x2="59.8" y2="503.9" stroke="#E23B3B" stroke-width="1"/>
  <rect x="57.8" y="457.4" width="4.0" height="20.7" fill="#E23B3B" stroke="none"/>
  <line x1="68.1" y1="440.6" x2="68.1" y2="557.8" stroke="#E23B3B" stroke-width="1"/>
  <rect x="66.1" y="487.8" width="4.0" height="6.5" fill="#E23B3B" stroke="none"/>
  <line x1="76.5" y1="412.7" x2="76.5" y2="473.6" stroke="#4CAF50" stroke-width="1"/>
  <rect x="74.5" y="423.6" width="4.0" height="50.0" fill="#4CAF50" stroke="none"/>
  <line x1="84.8" y1="401.0" x2="84.8" y2="450.4" stroke="#E23B3B" stroke-width="1"/>
  <rect x="82.8" y="411.3" width="4.0" height="36.8" fill="#E23B3B" stroke="none"/>
  <line x1="93.1" y1="445.3" x2="93.1" y2="503.4" stroke="#E23B3B" stroke-width="1"/>
  <rect x="91.1" y="445.3" width="4.0" height="54.9" fill="#E23B3B" stroke="none"/>
  <line x1="101.4" y1="499.4" x2="101.4" y2="544.6" stroke="#E23B3B" stroke-width="1"/>
  <rect x="99.4" y="500.4" width="4.0" height="8.8" fill="#E23B3B" stroke="none"/>
  <line x1="109.8" y1="506.7" x2="109.8" y2="557.8" stroke="#E23B3B" stroke-width="1"/>
  <rect x="107.8" y="507.9" width="4.0" height="15.1" fill="#E23B3B" stroke="none"/>
  <line x1="118.1" y1="512.5" x2="118.1" y2="588.5" stroke="#E23B3B" stroke-width="1"/>
  <rect x="116.1" y="522.5" width="4.0" height="45.6" fill="#E23B3B" stroke="none"/>
  <line x1="126.4" y1="547.6" x2="126.4" y2="584.6" stroke="#4CAF50" stroke-width="1"/>
  <rect x="124.4" y="551.1" width="4.0" height="8.8" fill="#4CAF50" stroke="none"/>
  <line x1="134.7" y1="550.0" x2="134.7" y2="590.4" stroke="#E23B3B" stroke-width="1"/>
  <rect x="132.8" y="556.0" width="4.0" height="8.6" fill="#E23B3B" stroke="none"/>
  <line x1="143.1" y1="487.7" x2="143.1" y2="577.3" stroke="#4CAF50" stroke-width="1"/>
  <rect x="141.1" y="515.5" width="4.0" height="54.9" fill="#4CAF50" stroke="none"/>
  <line x1="151.4" y1="500.2" x2="151.4" y2="543.4" stroke="#4CAF50" stroke-width="1"/>
  <rect x="149.4" y="505.7" width="4.0" height="10.2" fill="#4CAF50" stroke="none"/>
  <line x1="159.7" y1="486.7" x2="159.7" y2="534.0" stroke="#4CAF50" stroke-width="1"/>
  <rect x="157.7" y="509.2" width="4.0" height="1.9" fill="#4CAF50" stroke="none"/>
  <line x1="168.1" y1="484.6" x2="168.1" y2="581.2" stroke="#4CAF50" stroke-width="1"/>
  <rect x="166.1" y="496.9" width="4.0" height="32.7" fill="#4CAF50" stroke="none"/>
  <line x1="176.4" y1="484.4" x2="176.4" y2="517.5" stroke="#E23B3B" stroke-width="1"/>
  <rect x="174.4" y="490.4" width="4.0" height="6.3" fill="#E23B3B" stroke="none"/>
  <line x1="184.7" y1="463.6" x2="184.7" y2="502.9" stroke="#4CAF50" stroke-width="1"/>
  <rect x="182.7" y="469.6" width="4.0" height="26.6" fill="#4CAF50" stroke="none"/>
  <line x1="193.0" y1="449.2" x2="193.0" y2="480.7" stroke="#4CAF50" stroke-width="1"/>
  <rect x="191.0" y="462.7" width="4.0" height="6.2" fill="#4CAF50" stroke="none"/>
  <line x1="201.4" y1="453.9" x2="201.4" y2="494.8" stroke="#E23B3B" stroke-width="1"/>
  <rect x="199.4" y="480.7" width="4.0" height="1.5" fill="#E23B3B" stroke="none"/>
  <line x1="209.7" y1="468.7" x2="209.7" y2="511.7" stroke="#E23B3B" stroke-width="1"/>
  <rect x="207.7" y="469.4" width="4.0" height="25.5" fill="#E23B3B" stroke="none"/>
  <line x1="218.0" y1="465.0" x2="218.0" y2="516.8" stroke="#4CAF50" stroke-width="1"/>
  <rect x="216.0" y="481.6" width="4.0" height="26.6" fill="#4CAF50" stroke="none"/>
  <line x1="226.4" y1="412.6" x2="226.4" y2="482.5" stroke="#4CAF50" stroke-width="1"/>
  <rect x="224.4" y="420.7" width="4.0" height="47.7" fill="#4CAF50" stroke="none"/>
  <line x1="234.7" y1="416.8" x2="234.7" y2="446.9" stroke="#4CAF50" stroke-width="1"/>
  <rect x="232.7" y="424.7" width="4.0" height="4.0" fill="#4CAF50" stroke="none"/>
  <line x1="243.0" y1="378.6" x2="243.0" y2="428.8" stroke="#E23B3B" stroke-width="1"/>
  <rect x="241.0" y="392.9" width="4.0" height="17.8" fill="#E23B3B" stroke="none"/>
  <line x1="251.3" y1="376.0" x2="251.3" y2="445.5" stroke="#E23B3B" stroke-width="1"/>
  <rect x="249.3" y="401.3" width="4.0" height="34.1" fill="#E23B3B" stroke="none"/>
  <line x1="259.7" y1="401.1" x2="259.7" y2="463.1" stroke="#4CAF50" stroke-width="1"/>
  <rect x="257.7" y="428.1" width="4.0" height="15.5" fill="#4CAF50" stroke="none"/>
  <line x1="268.0" y1="394.4" x2="268.0" y2="443.2" stroke="#4CAF50" stroke-width="1"/>
  <rect x="266.0" y="402.4" width="4.0" height="25.7" fill="#4CAF50" stroke="none"/>
  <line x1="276.3" y1="385.3" x2="276.3" y2="437.2" stroke="#E23B3B" stroke-width="1"/>
  <rect x="274.3" y="389.7" width="4.0" height="44.4" fill="#E23B3B" stroke="none"/>
  <line x1="284.6" y1="394.8" x2="284.6" y2="443.6" stroke="#4CAF50" stroke-width="1"/>
  <rect x="282.6" y="400.1" width="4.0" height="31.3" fill="#4CAF50" stroke="none"/>
  <line x1="293.0" y1="359.2" x2="293.0" y2="400.3" stroke="#4CAF50" stroke-width="1"/>
  <rect x="291.0" y="388.3" width="4.0" height="1.5" fill="#4CAF50" stroke="none"/>
  <line x1="301.3" y1="354.1" x2="301.3" y2="401.7" stroke="#E23B3B" stroke-width="1"/>
  <rect x="299.3" y="370.2" width="4.0" height="27.8" fill="#E23B3B" stroke="none"/>
  <line x1="309.6" y1="347.4" x2="309.6" y2="414.5" stroke="#4CAF50" stroke-width="1"/>
  <rect x="307.6" y="375.3" width="4.0" height="9.9" fill="#4CAF50" stroke="none"/>
  <line x1="318.0" y1="319.3" x2="318.0" y2="389.9" stroke="#4CAF50" stroke-width="1"/>
  <rect x="316.0" y="375.1" width="4.0" height="14.8" fill="#4CAF50" stroke="none"/>
  <line x1="326.3" y1="320.9" x2="326.3" y2="372.1" stroke="#4CAF50" stroke-width="1"/>
  <rect x="324.3" y="322.3" width="4.0" height="29.7" fill="#4CAF50" stroke="none"/>
  <line x1="334.6" y1="324.2" x2="334.6" y2="390.7" stroke="#E23B3B" stroke-width="1"/>
  <rect x="332.6" y="335.3" width="4.0" height="28.7" fill="#E23B3B" stroke="none"/>
  <line x1="342.9" y1="338.3" x2="342.9" y2="389.9" stroke="#4CAF50" stroke-width="1"/>
  <rect x="340.9" y="351.8" width="4.0" height="26.6" fill="#4CAF50" stroke="none"/>
  <line x1="351.3" y1="277.0" x2="351.3" y2="348.7" stroke="#4CAF50" stroke-width="1"/>
  <rect x="349.3" y="297.1" width="4.0" height="50.0" fill="#4CAF50" stroke="none"/>
  <line x1="359.6" y1="218.4" x2="359.6" y2="275.5" stroke="#4CAF50" stroke-width="1"/>
  <rect x="357.6" y="220.7" width="4.0" height="54.7" fill="#4CAF50" stroke="none"/>
  <line x1="367.9" y1="208.0" x2="367.9" y2="261.4" stroke="#4CAF50" stroke-width="1"/>
  <rect x="365.9" y="221.1" width="4.0" height="11.1" fill="#4CAF50" stroke="none"/>
  <line x1="376.2" y1="217.7" x2="376.2" y2="252.0" stroke="#E23B3B" stroke-width="1"/>
  <rect x="374.3" y="230.4" width="4.0" height="1.6" fill="#E23B3B" stroke="none"/>
  <line x1="384.6" y1="218.4" x2="384.6" y2="261.6" stroke="#E23B3B" stroke-width="1"/>
  <rect x="382.6" y="224.9" width="4.0" height="14.6" fill="#E23B3B" stroke="none"/>
  <line x1="392.9" y1="229.3" x2="392.9" y2="288.1" stroke="#E23B3B" stroke-width="1"/>
  <rect x="390.9" y="255.6" width="4.0" height="32.0" fill="#E23B3B" stroke="none"/>
  <line x1="401.2" y1="109.6" x2="401.2" y2="371.9" stroke="#E23B3B" stroke-width="1"/>
  <rect x="399.2" y="141.9" width="4.0" height="127.3" fill="#E23B3B" stroke="none"/>
  <line x1="409.6" y1="286.2" x2="409.6" y2="380.4" stroke="#E23B3B" stroke-width="1"/>
  <rect x="407.6" y="286.2" width="4.0" height="62.3" fill="#E23B3B" stroke="none"/>
  <line x1="417.9" y1="331.4" x2="417.9" y2="412.0" stroke="#E23B3B" stroke-width="1"/>
  <rect x="415.9" y="357.3" width="4.0" height="32.9" fill="#E23B3B" stroke="none"/>
  <line x1="426.2" y1="396.2" x2="426.2" y2="464.3" stroke="#E23B3B" stroke-width="1"/>
  <rect x="424.2" y="400.8" width="4.0" height="61.4" fill="#E23B3B" stroke="none"/>
  <line x1="434.5" y1="444.8" x2="434.5" y2="489.1" stroke="#E23B3B" stroke-width="1"/>
  <rect x="432.5" y="454.3" width="4.0" height="7.4" fill="#E23B3B" stroke="none"/>
  <line x1="442.9" y1="399.0" x2="442.9" y2="462.7" stroke="#4CAF50" stroke-width="1"/>
  <rect x="440.9" y="415.2" width="4.0" height="47.5" fill="#4CAF50" stroke="none"/>
  <line x1="451.2" y1="384.1" x2="451.2" y2="424.9" stroke="#4CAF50" stroke-width="1"/>
  <rect x="449.2" y="395.7" width="4.0" height="19.5" fill="#4CAF50" stroke="none"/>
  <line x1="459.5" y1="355.4" x2="459.5" y2="420.8" stroke="#E23B3B" stroke-width="1"/>
  <rect x="457.5" y="376.0" width="4.0" height="10.4" fill="#E23B3B" stroke="none"/>
  <line x1="467.9" y1="357.5" x2="467.9" y2="392.0" stroke="#E23B3B" stroke-width="1"/>
  <rect x="465.9" y="381.2" width="4.0" height="1.8" fill="#E23B3B" stroke="none"/>
  <line x1="476.2" y1="332.8" x2="476.2" y2="390.9" stroke="#4CAF50" stroke-width="1"/>
  <rect x="474.2" y="337.1" width="4.0" height="53.9" fill="#4CAF50" stroke="none"/>
  <line x1="484.5" y1="309.6" x2="484.5" y2="385.1" stroke="#E23B3B" stroke-width="1"/>
  <rect x="482.5" y="368.7" width="4.0" height="16.2" fill="#E23B3B" stroke="none"/>
  <line x1="492.8" y1="408.7" x2="492.8" y2="455.0" stroke="#4CAF50" stroke-width="1"/>
  <rect x="490.8" y="431.9" width="4.0" height="10.0" fill="#4CAF50" stroke="none"/>
  <line x1="501.2" y1="397.3" x2="501.2" y2="452.2" stroke="#E23B3B" stroke-width="1"/>
  <rect x="499.2" y="430.4" width="4.0" height="15.5" fill="#E23B3B" stroke="none"/>
  <line x1="509.5" y1="409.9" x2="509.5" y2="442.7" stroke="#4CAF50" stroke-width="1"/>
  <rect x="507.5" y="415.7" width="4.0" height="14.1" fill="#4CAF50" stroke="none"/>
  <line x1="517.8" y1="383.2" x2="517.8" y2="424.7" stroke="#E23B3B" stroke-width="1"/>
  <rect x="515.8" y="418.4" width="4.0" height="3.7" fill="#E23B3B" stroke="none"/>
  <line x1="526.1" y1="389.2" x2="526.1" y2="429.3" stroke="#E23B3B" stroke-width="1"/>
  <rect x="524.1" y="400.1" width="4.0" height="12.7" fill="#E23B3B" stroke="none"/>
  <line x1="534.5" y1="381.8" x2="534.5" y2="432.8" stroke="#4CAF50" stroke-width="1"/>
  <rect x="532.5" y="401.5" width="4.0" height="15.5" fill="#4CAF50" stroke="none"/>
  <line x1="542.8" y1="348.0" x2="542.8" y2="394.8" stroke="#E23B3B" stroke-width="1"/>
  <rect x="540.8" y="379.0" width="4.0" height="13.0" fill="#E23B3B" stroke="none"/>
  <line x1="551.1" y1="394.6" x2="551.1" y2="462.2" stroke="#E23B3B" stroke-width="1"/>
  <rect x="549.1" y="413.8" width="4.0" height="25.9" fill="#E23B3B" stroke="none"/>
  <line x1="559.5" y1="433.2" x2="559.5" y2="482.1" stroke="#E23B3B" stroke-width="1"/>
  <rect x="557.5" y="438.4" width="4.0" height="34.0" fill="#E23B3B" stroke="none"/>
  <line x1="567.8" y1="452.0" x2="567.8" y2="487.0" stroke="#4CAF50" stroke-width="1"/>
  <rect x="565.8" y="468.0" width="4.0" height="12.0" fill="#4CAF50" stroke="none"/>
  <line x1="576.1" y1="395.5" x2="576.1" y2="437.9" stroke="#4CAF50" stroke-width="1"/>
  <rect x="574.1" y="426.3" width="4.0" height="11.6" fill="#4CAF50" stroke="none"/>
  <line x1="584.4" y1="339.9" x2="584.4" y2="428.8" stroke="#4CAF50" stroke-width="1"/>
  <rect x="582.4" y="346.4" width="4.0" height="70.1" fill="#4CAF50" stroke="none"/>
  <line x1="592.8" y1="335.1" x2="592.8" y2="400.8" stroke="#E23B3B" stroke-width="1"/>
  <rect x="590.8" y="352.7" width="4.0" height="44.9" fill="#E23B3B" stroke="none"/>
  <line x1="601.1" y1="378.3" x2="601.1" y2="418.9" stroke="#4CAF50" stroke-width="1"/>
  <rect x="599.1" y="400.6" width="4.0" height="7.7" fill="#4CAF50" stroke="none"/>
  <line x1="609.4" y1="359.4" x2="609.4" y2="402.9" stroke="#4CAF50" stroke-width="1"/>
  <rect x="607.4" y="375.8" width="4.0" height="27.1" fill="#4CAF50" stroke="none"/>
  <line x1="617.7" y1="335.0" x2="617.7" y2="418.4" stroke="#E23B3B" stroke-width="1"/>
  <rect x="615.7" y="385.5" width="4.0" height="5.3" fill="#E23B3B" stroke="none"/>
  <line x1="626.1" y1="342.9" x2="626.1" y2="399.4" stroke="#E23B3B" stroke-width="1"/>
  <rect x="624.1" y="381.4" width="4.0" height="13.2" fill="#E23B3B" stroke="none"/>
  <line x1="634.4" y1="378.3" x2="634.4" y2="416.4" stroke="#4CAF50" stroke-width="1"/>
  <rect x="632.4" y="381.9" width="4.0" height="12.8" fill="#4CAF50" stroke="none"/>
  <line x1="642.7" y1="374.6" x2="642.7" y2="420.7" stroke="#E23B3B" stroke-width="1"/>
  <rect x="640.7" y="374.6" width="4.0" height="27.1" fill="#E23B3B" stroke="none"/>
  <line x1="651.1" y1="381.4" x2="651.1" y2="411.5" stroke="#4CAF50" stroke-width="1"/>
  <rect x="649.1" y="393.2" width="4.0" height="7.4" fill="#4CAF50" stroke="none"/>
  <line x1="659.4" y1="386.3" x2="659.4" y2="409.5" stroke="#E23B3B" stroke-width="1"/>
  <rect x="657.4" y="402.2" width="4.0" height="2.5" fill="#E23B3B" stroke="none"/>
  <line x1="667.7" y1="370.1" x2="667.7" y2="445.3" stroke="#E23B3B" stroke-width="1"/>
  <rect x="665.7" y="384.2" width="4.0" height="60.0" fill="#E23B3B" stroke="none"/>
  <line x1="676.0" y1="370.1" x2="676.0" y2="426.4" stroke="#4CAF50" stroke-width="1"/>
  <rect x="674.0" y="399.0" width="4.0" height="17.7" fill="#4CAF50" stroke="none"/>
  <line x1="684.4" y1="353.5" x2="684.4" y2="417.2" stroke="#4CAF50" stroke-width="1"/>
  <rect x="682.4" y="367.6" width="4.0" height="48.6" fill="#4CAF50" stroke="none"/>
  <line x1="692.7" y1="345.5" x2="692.7" y2="414.6" stroke="#E23B3B" stroke-width="1"/>
  <rect x="690.7" y="356.8" width="4.0" height="10.2" fill="#E23B3B" stroke="none"/>
  <line x1="701.0" y1="308.3" x2="701.0" y2="378.6" stroke="#E23B3B" stroke-width="1"/>
  <rect x="699.0" y="346.2" width="4.0" height="19.6" fill="#E23B3B" stroke="none"/>
  <line x1="709.4" y1="351.5" x2="709.4" y2="403.1" stroke="#E23B3B" stroke-width="1"/>
  <rect x="707.4" y="351.5" width="4.0" height="50.9" fill="#E23B3B" stroke="none"/>
  <line x1="717.7" y1="370.1" x2="717.7" y2="415.1" stroke="#E23B3B" stroke-width="1"/>
  <rect x="715.7" y="399.6" width="4.0" height="3.5" fill="#E23B3B" stroke="none"/>
  <line x1="726.0" y1="391.8" x2="726.0" y2="457.8" stroke="#4CAF50" stroke-width="1"/>
  <rect x="724.0" y="400.8" width="4.0" height="19.8" fill="#4CAF50" stroke="none"/>
  <line x1="734.3" y1="387.7" x2="734.3" y2="428.0" stroke="#E23B3B" stroke-width="1"/>
  <rect x="732.3" y="389.0" width="4.0" height="18.5" fill="#E23B3B" stroke="none"/>
  <line x1="742.7" y1="373.1" x2="742.7" y2="427.3" stroke="#4CAF50" stroke-width="1"/>
  <rect x="740.7" y="389.3" width="4.0" height="21.7" fill="#4CAF50" stroke="none"/>
  <line x1="751.0" y1="385.3" x2="751.0" y2="425.9" stroke="#4CAF50" stroke-width="1"/>
  <rect x="749.0" y="390.9" width="4.0" height="18.0" fill="#4CAF50" stroke="none"/>
  <line x1="759.3" y1="283.4" x2="759.3" y2="428.5" stroke="#4CAF50" stroke-width="1"/>
  <rect x="757.3" y="297.5" width="4.0" height="84.4" fill="#4CAF50" stroke="none"/>
  <!-- highlight zone -->
  
  <!-- price axis -->
  <text x="936.0" y="568.3" fill="#6b7a99" font-size="10" font-family="monospace">105.00</text>
  <text x="936.0" y="480.0" fill="#6b7a99" font-size="10" font-family="monospace">110.00</text>
  <text x="936.0" y="391.7" fill="#6b7a99" font-size="10" font-family="monospace">115.00</text>
  <text x="936.0" y="215.1" fill="#6b7a99" font-size="10" font-family="monospace">125.00</text>
  <text x="936.0" y="126.8" fill="#6b7a99" font-size="10" font-family="monospace">130.00</text>
  <rect x="932.0" y="287.5" width="58" height="18" rx="2" fill="#4CAF50"/><text x="961.0" y="300.5" fill="#ffffff" font-size="10" font-weight="bold" font-family="monospace" text-anchor="middle">120.11</text>
  <!-- % change callout -->
  
  <!-- date labels -->
  <text x="18.2" y="630" fill="#4a556a" font-size="9" text-anchor="start">2026-04-27</text>
  <text x="168.1" y="630" fill="#4a556a" font-size="9" text-anchor="middle">2026-05-21</text>
  <text x="318.0" y="630" fill="#4a556a" font-size="9" text-anchor="middle">2026-06-17</text>
  <text x="459.5" y="630" fill="#4a556a" font-size="9" text-anchor="middle">2026-07-14</text>
  <text x="609.4" y="630" fill="#4a556a" font-size="9" text-anchor="middle">2026-08-07</text>
  <text x="759.3" y="630" fill="#4a556a" font-size="9" text-anchor="end">2026-09-02</text>
  <!-- M2 overlay labels (top-most in price panel, never occluded) -->
  <rect x="845.0" y="399.5" width="78" height="17" rx="4" fill="#0E1420" fill-opacity="0.82" stroke="#5b9dff" stroke-opacity="0.55" stroke-width="1"/><text x="916.0" y="412.0" fill="#5b9dff" font-size="11" text-anchor="end" font-family="sans-serif">POC 114.53</text><rect x="871.0" y="371.2" width="52" height="17" rx="4" fill="#0E1420" fill-opacity="0.82" stroke="#F59E0B" stroke-opacity="0.55" stroke-width="1"/><text x="916.0" y="383.7" fill="#F59E0B" font-size="11" text-anchor="end" font-family="sans-serif">50 SMA</text>
  <!-- subpanels -->
  <line x1="14" y1="632" x2="928" y2="632" stroke="#232A3D" stroke-width="1"/>
  <text x="18" y="645" fill="#6b7a99" font-size="9" font-weight="700" letter-spacing="0.12em">MACD</text>
  <line x1="14" y1="734.0" x2="928" y2="734.0" stroke="#2f3750" stroke-width="1"/>
  <rect x="16.2" y="725.3" width="4.0" height="8.7" fill="#4CAF50" opacity="0.5" stroke="none"/>
  <rect x="24.5" y="724.1" width="4.0" height="9.9" fill="#4CAF50" opacity="0.5" stroke="none"/>
  <rect x="32.8" y="724.3" width="4.0" height="9.7" fill="#4CAF50" opacity="0.5" stroke="none"/>
  <rect x="41.1" y="723.1" width="4.0" height="10.9" fill="#4CAF50" opacity="0.5" stroke="none"/>
  <rect x="49.5" y="722.7" width="4.0" height="11.3" fill="#4CAF50" opacity="0.5" stroke="none"/>
  <rect x="57.8" y="723.6" width="4.0" height="10.4" fill="#4CAF50" opacity="0.5" stroke="none"/>
  <rect x="66.1" y="725.1" width="4.0" height="8.9" fill="#4CAF50" opacity="0.5" stroke="none"/>
  <rect x="74.5" y="723.3" width="4.0" height="10.7" fill="#4CAF50" opacity="0.5" stroke="none"/>
  <rect x="82.8" y="723.6" width="4.0" height="10.4" fill="#4CAF50" opacity="0.5" stroke="none"/>
  <rect x="91.1" y="726.2" width="4.0" height="7.8" fill="#4CAF50" opacity="0.5" stroke="none"/>
  <rect x="99.4" y="728.5" width="4.0" height="5.5" fill="#4CAF50" opacity="0.5" stroke="none"/>
  <rect x="107.8" y="730.6" width="4.0" height="3.4" fill="#4CAF50" opacity="0.5" stroke="none"/>
  <rect x="116.1" y="733.8" width="4.0" height="1.0" fill="#4CAF50" opacity="0.5" stroke="none"/>
  <rect x="124.4" y="734.0" width="4.0" height="1.0" fill="#E23B3B" opacity="0.5" stroke="none"/>
  <rect x="132.8" y="734.0" width="4.0" height="2.0" fill="#E23B3B" opacity="0.5" stroke="none"/>
  <rect x="141.1" y="734.0" width="4.0" height="1.0" fill="#E23B3B" opacity="0.5" stroke="none"/>
  <rect x="149.4" y="732.8" width="4.0" height="1.2" fill="#4CAF50" opacity="0.5" stroke="none"/>
  <rect x="157.7" y="731.9" width="4.0" height="2.1" fill="#4CAF50" opacity="0.5" stroke="none"/>
  <rect x="166.1" y="730.7" width="4.0" height="3.3" fill="#4CAF50" opacity="0.5" stroke="none"/>
  <rect x="174.4" y="730.0" width="4.0" height="4.0" fill="#4CAF50" opacity="0.5" stroke="none"/>
  <rect x="182.7" y="728.5" width="4.0" height="5.5" fill="#4CAF50" opacity="0.5" stroke="none"/>
  <rect x="191.0" y="727.5" width="4.0" height="6.5" fill="#4CAF50" opacity="0.5" stroke="none"/>
  <rect x="199.4" y="727.8" width="4.0" height="6.2" fill="#4CAF50" opacity="0.5" stroke="none"/>
  <rect x="207.7" y="728.8" width="4.0" height="5.2" fill="#4CAF50" opacity="0.5" stroke="none"/>
  <rect x="216.0" y="729.1" width="4.0" height="4.9" fill="#4CAF50" opacity="0.5" stroke="none"/>
  <rect x="224.4" y="726.9" width="4.0" height="7.1" fill="#4CAF50" opacity="0.5" stroke="none"/>
  <rect x="232.7" y="726.0" width="4.0" height="8.0" fill="#4CAF50" opacity="0.5" stroke="none"/>
  <rect x="241.0" y="725.3" width="4.0" height="8.7" fill="#4CAF50" opacity="0.5" stroke="none"/>
  <rect x="249.3" y="726.3" width="4.0" height="7.7" fill="#4CAF50" opacity="0.5" stroke="none"/>
  <rect x="257.7" y="727.0" width="4.0" height="7.0" fill="#4CAF50" opacity="0.5" stroke="none"/>
  <rect x="266.0" y="726.8" width="4.0" height="7.2" fill="#4CAF50" opacity="0.5" stroke="none"/>
  <rect x="274.3" y="728.3" width="4.0" height="5.7" fill="#4CAF50" opacity="0.5" stroke="none"/>
  <rect x="282.6" y="728.2" width="4.0" height="5.8" fill="#4CAF50" opacity="0.5" stroke="none"/>
  <rect x="291.0" y="728.1" width="4.0" height="5.9" fill="#4CAF50" opacity="0.5" stroke="none"/>
  <rect x="299.3" y="728.7" width="4.0" height="5.3" fill="#4CAF50" opacity="0.5" stroke="none"/>
  <rect x="307.6" y="728.6" width="4.0" height="5.4" fill="#4CAF50" opacity="0.5" stroke="none"/>
  <rect x="316.0" y="728.9" width="4.0" height="5.1" fill="#4CAF50" opacity="0.5" stroke="none"/>
  <rect x="324.3" y="727.2" width="4.0" height="6.8" fill="#4CAF50" opacity="0.5" stroke="none"/>
  <rect x="332.6" y="728.4" width="4.0" height="5.6" fill="#4CAF50" opacity="0.5" stroke="none"/>
  <rect x="340.9" y="729.1" width="4.0" height="4.9" fill="#4CAF50" opacity="0.5" stroke="none"/>
  <rect x="349.3" y="727.6" width="4.0" height="6.4" fill="#4CAF50" opacity="0.5" stroke="none"/>
  <rect x="357.6" y="724.1" width="4.0" height="9.9" fill="#4CAF50" opacity="0.5" stroke="none"/>
  <rect x="365.9" y="722.6" width="4.0" height="11.4" fill="#4CAF50" opacity="0.5" stroke="none"/>
  <rect x="374.3" y="722.9" width="4.0" height="11.1" fill="#4CAF50" opacity="0.5" stroke="none"/>
  <rect x="382.6" y="724.2" width="4.0" height="9.8" fill="#4CAF50" opacity="0.5" stroke="none"/>
  <rect x="390.9" y="727.8" width="4.0" height="6.2" fill="#4CAF50" opacity="0.5" stroke="none"/>
  <rect x="399.2" y="729.9" width="4.0" height="4.1" fill="#4CAF50" opacity="0.5" stroke="none"/>
  <rect x="407.6" y="734.0" width="4.0" height="1.0" fill="#E23B3B" opacity="0.5" stroke="none"/>
  <rect x="415.9" y="734.0" width="4.0" height="6.0" fill="#E23B3B" opacity="0.5" stroke="none"/>
  <rect x="424.2" y="734.0" width="4.0" height="12.1" fill="#E23B3B" opacity="0.5" stroke="none"/>
  <rect x="432.5" y="734.0" width="4.0" height="15.6" fill="#E23B3B" opacity="0.5" stroke="none"/>
  <rect x="440.9" y="734.0" width="4.0" height="15.2" fill="#E23B3B" opacity="0.5" stroke="none"/>
  <rect x="449.2" y="734.0" width="4.0" height="13.5" fill="#E23B3B" opacity="0.5" stroke="none"/>
  <rect x="457.5" y="734.0" width="4.0" height="11.5" fill="#E23B3B" opacity="0.5" stroke="none"/>
  <rect x="465.9" y="734.0" width="4.0" height="9.6" fill="#E23B3B" opacity="0.5" stroke="none"/>
  <rect x="474.2" y="734.0" width="4.0" height="6.1" fill="#E23B3B" opacity="0.5" stroke="none"/>
  <rect x="482.5" y="734.0" width="4.0" height="5.6" fill="#E23B3B" opacity="0.5" stroke="none"/>
  <rect x="490.8" y="734.0" width="4.0" height="7.0" fill="#E23B3B" opacity="0.5" stroke="none"/>
  <rect x="499.2" y="734.0" width="4.0" height="8.2" fill="#E23B3B" opacity="0.5" stroke="none"/>
  <rect x="507.5" y="734.0" width="4.0" height="7.2" fill="#E23B3B" opacity="0.5" stroke="none"/>
  <rect x="515.8" y="734.0" width="4.0" height="6.5" fill="#E23B3B" opacity="0.5" stroke="none"/>
  <rect x="524.1" y="734.0" width="4.0" height="5.4" fill="#E23B3B" opacity="0.5" stroke="none"/>
  <rect x="532.5" y="734.0" width="4.0" height="3.9" fill="#E23B3B" opacity="0.5" stroke="none"/>
  <rect x="540.8" y="734.0" width="4.0" height="2.3" fill="#E23B3B" opacity="0.5" stroke="none"/>
  <rect x="549.1" y="734.0" width="4.0" height="3.1" fill="#E23B3B" opacity="0.5" stroke="none"/>
  <rect x="557.5" y="734.0" width="4.0" height="4.8" fill="#E23B3B" opacity="0.5" stroke="none"/>
  <rect x="565.8" y="734.0" width="4.0" height="5.4" fill="#E23B3B" opacity="0.5" stroke="none"/>
  <rect x="574.1" y="734.0" width="4.0" height="3.7" fill="#E23B3B" opacity="0.5" stroke="none"/>
  <rect x="582.4" y="733.0" width="4.0" height="1.0" fill="#4CAF50" opacity="0.5" stroke="none"/>
  <rect x="590.8" y="732.2" width="4.0" height="1.8" fill="#4CAF50" opacity="0.5" stroke="none"/>
  <rect x="599.1" y="731.9" width="4.0" height="2.1" fill="#4CAF50" opacity="0.5" stroke="none"/>
  <rect x="607.4" y="730.7" width="4.0" height="3.3" fill="#4CAF50" opacity="0.5" stroke="none"/>
  <rect x="615.7" y="730.7" width="4.0" height="3.3" fill="#4CAF50" opacity="0.5" stroke="none"/>
  <rect x="624.1" y="731.0" width="4.0" height="3.0" fill="#4CAF50" opacity="0.5" stroke="none"/>
  <rect x="632.4" y="730.7" width="4.0" height="3.3" fill="#4CAF50" opacity="0.5" stroke="none"/>
  <rect x="640.7" y="731.5" width="4.0" height="2.5" fill="#4CAF50" opacity="0.5" stroke="none"/>
  <rect x="649.1" y="731.8" width="4.0" height="2.2" fill="#4CAF50" opacity="0.5" stroke="none"/>
  <rect x="657.4" y="732.5" width="4.0" height="1.5" fill="#4CAF50" opacity="0.5" stroke="none"/>
  <rect x="665.7" y="734.0" width="4.0" height="1.0" fill="#E23B3B" opacity="0.5" stroke="none"/>
  <rect x="674.0" y="734.0" width="4.0" height="1.0" fill="#E23B3B" opacity="0.5" stroke="none"/>
  <rect x="682.4" y="732.4" width="4.0" height="1.6" fill="#4CAF50" opacity="0.5" stroke="none"/>
  <rect x="690.7" y="731.4" width="4.0" height="2.6" fill="#4CAF50" opacity="0.5" stroke="none"/>
  <rect x="699.0" y="730.9" width="4.0" height="3.1" fill="#4CAF50" opacity="0.5" stroke="none"/>
  <rect x="707.4" y="732.2" width="4.0" height="1.8" fill="#4CAF50" opacity="0.5" stroke="none"/>
  <rect x="715.7" y="733.2" width="4.0" height="1.0" fill="#4CAF50" opacity="0.5" stroke="none"/>
  <rect x="724.0" y="733.7" width="4.0" height="1.0" fill="#4CAF50" opacity="0.5" stroke="none"/>
  <rect x="732.3" y="734.0" width="4.0" height="1.0" fill="#E23B3B" opacity="0.5" stroke="none"/>
  <rect x="740.7" y="734.0" width="4.0" height="1.0" fill="#4CAF50" opacity="0.5" stroke="none"/>
  <rect x="749.0" y="733.8" width="4.0" height="1.0" fill="#4CAF50" opacity="0.5" stroke="none"/>
  <rect x="757.3" y="729.9" width="4.0" height="4.1" fill="#4CAF50" opacity="0.5" stroke="none"/>
  <polyline points="18.2,767.2 26.5,763.5 34.8,761.3 43.1,757.3 51.5,754.2 59.8,752.4 68.1,751.7 76.5,747.3 84.8,744.9 93.1,745.6 101.4,746.5 109.8,747.8 118.1,750.9 126.4,752.3 134.7,753.9 143.1,752.4 151.4,750.5 159.7,749.0 168.1,747.0 176.4,745.3 184.7,742.4 193.0,739.8 201.4,738.6 209.7,738.3 218.0,737.3 226.4,733.3 234.7,730.5 243.0,727.5 251.3,726.6 259.7,725.6 268.0,723.5 276.3,723.7 284.6,722.2 293.0,720.5 301.3,719.9 309.6,718.4 318.0,717.3 326.3,714.0 334.6,713.8 342.9,713.2 351.3,710.2 359.6,704.2 367.9,699.8 376.2,697.3 384.6,696.2 392.9,698.2 401.2,699.3 409.6,704.5 417.9,711.2 426.2,720.3 434.5,727.6 442.9,731.0 451.2,732.7 459.5,733.6 467.9,734.1 476.2,732.1 484.5,733.1 492.8,736.2 501.2,739.4 509.5,740.3 517.8,741.2 526.1,741.4 534.5,740.9 542.8,739.9 551.1,741.5 559.5,744.4 567.8,746.3 576.1,745.5 584.4,740.6 592.8,739.4 601.1,738.5 609.4,736.5 617.7,735.6 626.1,735.1 634.4,734.1 642.7,734.3 651.1,734.0 659.4,734.4 667.7,736.7 676.0,736.2 684.4,734.1 692.7,732.4 701.0,731.1 709.4,732.0 717.7,732.7 726.0,733.2 734.3,733.9 742.7,733.6 751.0,733.4 759.3,728.4" fill="none" stroke="#5b9dff" stroke-width="1.5" stroke-linejoin="round" stroke-linecap="round"/>
  <polyline points="18.2,775.9 26.5,773.4 34.8,771.0 43.1,768.3 51.5,765.4 59.8,762.8 68.1,760.6 76.5,757.9 84.8,755.3 93.1,753.4 101.4,752.0 109.8,751.2 118.1,751.1 126.4,751.3 134.7,751.9 143.1,752.0 151.4,751.7 159.7,751.1 168.1,750.3 176.4,749.3 184.7,747.9 193.0,746.3 201.4,744.8 209.7,743.5 218.0,742.2 226.4,740.4 234.7,738.5 243.0,736.3 251.3,734.3 259.7,732.6 268.0,730.8 276.3,729.4 284.6,727.9 293.0,726.4 301.3,725.1 309.6,723.8 318.0,722.5 326.3,720.8 334.6,719.4 342.9,718.2 351.3,716.6 359.6,714.1 367.9,711.2 376.2,708.4 384.6,706.0 392.9,704.4 401.2,703.4 409.6,703.6 417.9,705.1 426.2,708.2 434.5,712.1 442.9,715.9 451.2,719.2 459.5,722.1 467.9,724.5 476.2,726.0 484.5,727.4 492.8,729.2 501.2,731.2 509.5,733.1 517.8,734.7 526.1,736.0 534.5,737.0 542.8,737.6 551.1,738.4 559.5,739.6 567.8,740.9 576.1,741.8 584.4,741.6 592.8,741.1 601.1,740.6 609.4,739.8 617.7,738.9 626.1,738.2 634.4,737.4 642.7,736.7 651.1,736.2 659.4,735.8 667.7,736.0 676.0,736.0 684.4,735.6 692.7,735.0 701.0,734.2 709.4,733.8 717.7,733.6 726.0,733.5 734.3,733.6 742.7,733.6 751.0,733.5 759.3,732.5" fill="none" stroke="#F59E0B" stroke-width="1.2" stroke-linejoin="round" stroke-linecap="round"/>
  <text x="936" y="732.4" fill="#4CAF50" font-size="9" font-family="monospace">0.492</text>
  <!-- header (rendered last so it sits on top) -->
  <rect x="0" y="0" width="1000" height="64" fill="#0A1020" opacity="0.9"/>
  <rect x="8.00" y="15.00" width="34.00" height="34.00" rx="8.93" fill="url(#mbTile_2036310954)"/><rect x="8.00" y="15.00" width="34.00" height="34.00" rx="8.93" fill="url(#mbGlow_2036310954)"/><rect x="8.00" y="15.00" width="34.00" height="34.00" rx="8.93" fill="url(#mbSheen_2036310954)"/><path d="M17.35,38.03 L17.35,26.56 L23.30,32.94 L29.25,24.86 L29.25,38.03" fill="none" stroke="#15205a" stroke-opacity=".30" stroke-width="2.80" stroke-linecap="round" stroke-linejoin="round"/><path d="M17.35,37.10 L17.35,25.62 L23.30,32.00 L29.25,23.92 L29.25,37.10" fill="none" stroke="url(#mbInk_2036310954)" stroke-width="2.80" stroke-linecap="round" stroke-linejoin="round"/>
  <text x="50.0" y="39.0" fill="#ffffff" font-size="20" font-weight="900" font-family="sans-serif" letter-spacing="0.07em">MASTERMIND</text>
  <text x="924.0" y="30.0" fill="#ffffff" font-size="26" font-weight="bold" text-anchor="end" font-family="sans-serif">LNN</text><text x="924.0" y="48.0" fill="#8899bb" font-size="13" text-anchor="end" letter-spacing="1" font-family="sans-serif">DAILY</text>
  <!-- footer -->
  <rect x="0" y="834" width="1000" height="46" fill="#0A1020" opacity="0.94"/><rect x="0" y="834" width="1000" height="1.5" fill="url(#bb_laser_2036310954)"/><rect x="14.00" y="848.00" width="18.00" height="18.00" rx="4.73" fill="url(#mbTile_2036310954bb)"/><rect x="14.00" y="848.00" width="18.00" height="18.00" rx="4.73" fill="url(#mbGlow_2036310954bb)"/><rect x="14.00" y="848.00" width="18.00" height="18.00" rx="4.73" fill="url(#mbSheen_2036310954bb)"/><path d="M18.95,860.20 L18.95,854.12 L22.10,857.50 L25.25,853.22 L25.25,860.20" fill="none" stroke="#15205a" stroke-opacity=".30" stroke-width="1.48" stroke-linecap="round" stroke-linejoin="round"/><path d="M18.95,859.70 L18.95,853.62 L22.10,857.00 L25.25,852.73 L25.25,859.70" fill="none" stroke="url(#mbInk_2036310954bb)" stroke-width="1.48" stroke-linecap="round" stroke-linejoin="round"/><text x="41.0" y="862.0" fill="#ffffff" font-size="15" font-weight="800" font-family="sans-serif" letter-spacing="0.3">mastermind-x.com</text><circle cx="204.0" cy="857.0" r="1.5" fill="#3a4466"/><text x="215.0" y="861.0" fill="#93a7cc" font-size="11" font-weight="700" font-family="sans-serif" letter-spacing="1.4">AI STOCK SIGNALS</text><circle cx="376.4" cy="857.0" r="1.5" fill="#3a4466"/><text x="387.4" y="861.0" fill="#8899bb" font-size="11" font-family="sans-serif" letter-spacing="0.2">Daily stock signals</text><text x="986.0" y="860.0" fill="#3a4466" font-size="9" text-anchor="end" font-family="sans-serif">© 2026 Mastermind</text>
</svg>