<svg viewBox="0 0 1000 880" xmlns="http://www.w3.org/2000/svg" width="1000" height="880">
  <defs><marker id="arrowhead_727462493" markerWidth="8" markerHeight="6" refX="4" refY="3" orient="auto"><polygon points="0 0, 8 3, 0 6" fill="#4CAF50"/></marker><linearGradient id="mbTile_727462493" x1="0" y1="0" x2="1" y2="1" gradientUnits="objectBoundingBox"><stop offset="0" stop-color="#5b9dff"/><stop offset=".42" stop-color="#3b82f6"/><stop offset=".74" stop-color="#6366f1"/><stop offset="1" stop-color="#7c5cff"/></linearGradient><linearGradient id="mbSheen_727462493" x1="0" y1="0" x2="0" y2="1" gradientUnits="objectBoundingBox"><stop offset="0" stop-color="#ffffff" stop-opacity=".34"/><stop offset=".55" stop-color="#ffffff" stop-opacity="0"/></linearGradient><radialGradient id="mbGlow_727462493" cx=".5" cy=".4" r=".65" gradientUnits="objectBoundingBox"><stop offset="0" stop-color="#ffffff" stop-opacity=".22"/><stop offset="1" stop-color="#ffffff" stop-opacity="0"/></radialGradient><linearGradient id="mbInk_727462493" x1="0" y1="0" x2="0" y2="1" gradientUnits="objectBoundingBox"><stop offset="0" stop-color="#ffffff"/><stop offset="1" stop-color="#dbe7ff"/></linearGradient><linearGradient id="bb_laser_727462493" x1="0" y1="0" x2="1" y2="0"><stop offset="0" stop-color="#5b9dff"/><stop offset="0.35" stop-color="#6366f1"/><stop offset="0.6" stop-color="#7c5cff"/><stop offset="0.92" stop-color="#7c5cff" stop-opacity="0"/></linearGradient><linearGradient id="bb_btn_727462493" x1="0" y1="0" x2="1" y2="0"><stop offset="0" stop-color="#3b82f6"/><stop offset="1" stop-color="#7c5cff"/></linearGradient><linearGradient id="bb_btnsheen_727462493" x1="0" y1="0" x2="0" y2="1"><stop offset="0" stop-color="#ffffff" stop-opacity="0.18"/><stop offset="0.55" stop-color="#ffffff" stop-opacity="0.02"/><stop offset="1" stop-color="#ffffff" stop-opacity="0"/></linearGradient><linearGradient id="mbTile_727462493bb" x1="0" y1="0" x2="1" y2="1" gradientUnits="objectBoundingBox"><stop offset="0" stop-color="#5b9dff"/><stop offset=".42" stop-color="#3b82f6"/><stop offset=".74" stop-color="#6366f1"/><stop offset="1" stop-color="#7c5cff"/></linearGradient><linearGradient id="mbSheen_727462493bb" x1="0" y1="0" x2="0" y2="1" gradientUnits="objectBoundingBox"><stop offset="0" stop-color="#ffffff" stop-opacity=".34"/><stop offset=".55" stop-color="#ffffff" stop-opacity="0"/></linearGradient><radialGradient id="mbGlow_727462493bb" cx=".5" cy=".4" r=".65" gradientUnits="objectBoundingBox"><stop offset="0" stop-color="#ffffff" stop-opacity=".22"/><stop offset="1" stop-color="#ffffff" stop-opacity="0"/></radialGradient><linearGradient id="mbInk_727462493bb" x1="0" y1="0" x2="0" y2="1" gradientUnits="objectBoundingBox"><stop offset="0" stop-color="#ffffff"/><stop offset="1" stop-color="#dbe7ff"/></linearGradient></defs>
  <!-- background -->
  <rect width="1000" height="880" fill="#0E1420"/>
  <!-- ghost watermark -->
  <text x="471.0" y="377.4" fill="#ffffff" fill-opacity="0.04" font-size="90" font-weight="bold" text-anchor="middle" dominant-baseline="middle">WABC</text>
  <!-- company logo overlay -->
  
  <!-- embedded volume (paneless, under candles) -->
  <rect x="16.2" y="610.4" width="4.0" height="13.6" fill="#4CAF50" opacity="0.28" stroke="none"/>
  <rect x="24.5" y="606.7" width="4.0" height="17.3" fill="#4CAF50" opacity="0.28" stroke="none"/>
  <rect x="32.8" y="599.1" width="4.0" height="24.9" fill="#E23B3B" opacity="0.28" stroke="none"/>
  <rect x="41.1" y="607.5" width="4.0" height="16.5" fill="#E23B3B" opacity="0.28" stroke="none"/>
  <rect x="49.5" y="593.8" width="4.0" height="30.2" fill="#4CAF50" opacity="0.28" stroke="none"/>
  <rect x="57.8" y="588.8" width="4.0" height="35.2" fill="#4CAF50" opacity="0.28" stroke="none"/>
  <rect x="66.1" y="581.2" width="4.0" height="42.8" fill="#E23B3B" opacity="0.28" stroke="none"/>
  <rect x="74.5" y="596.1" width="4.0" height="27.9" fill="#4CAF50" opacity="0.28" stroke="none"/>
  <rect x="82.8" y="589.3" width="4.0" height="34.7" fill="#4CAF50" opacity="0.28" stroke="none"/>
  <rect x="91.1" y="592.1" width="4.0" height="31.9" fill="#4CAF50" opacity="0.28" stroke="none"/>
  <rect x="99.4" y="596.3" width="4.0" height="27.7" fill="#4CAF50" opacity="0.28" stroke="none"/>
  <rect x="107.8" y="599.4" width="4.0" height="24.6" fill="#E23B3B" opacity="0.28" stroke="none"/>
  <rect x="116.1" y="597.2" width="4.0" height="26.8" fill="#4CAF50" opacity="0.28" stroke="none"/>
  <rect x="124.4" y="599.3" width="4.0" height="24.7" fill="#E23B3B" opacity="0.28" stroke="none"/>
  <rect x="132.8" y="606.9" width="4.0" height="17.1" fill="#E23B3B" opacity="0.28" stroke="none"/>
  <rect x="141.1" y="600.2" width="4.0" height="23.8" fill="#4CAF50" opacity="0.28" stroke="none"/>
  <rect x="149.4" y="600.8" width="4.0" height="23.2" fill="#E23B3B" opacity="0.28" stroke="none"/>
  <rect x="157.7" y="603.6" width="4.0" height="20.4" fill="#4CAF50" opacity="0.28" stroke="none"/>
  <rect x="166.1" y="597.1" width="4.0" height="26.9" fill="#E23B3B" opacity="0.28" stroke="none"/>
  <rect x="174.4" y="600.7" width="4.0" height="23.3" fill="#4CAF50" opacity="0.28" stroke="none"/>
  <rect x="182.7" y="605.4" width="4.0" height="18.6" fill="#4CAF50" opacity="0.28" stroke="none"/>
  <rect x="191.0" y="607.7" width="4.0" height="16.3" fill="#E23B3B" opacity="0.28" stroke="none"/>
  <rect x="199.4" y="605.8" width="4.0" height="18.2" fill="#E23B3B" opacity="0.28" stroke="none"/>
  <rect x="207.7" y="606.9" width="4.0" height="17.1" fill="#4CAF50" opacity="0.28" stroke="none"/>
  <rect x="216.0" y="589.4" width="4.0" height="34.6" fill="#4CAF50" opacity="0.28" stroke="none"/>
  <rect x="224.4" y="589.5" width="4.0" height="34.5" fill="#4CAF50" opacity="0.28" stroke="none"/>
  <rect x="232.7" y="576.2" width="4.0" height="47.8" fill="#E23B3B" opacity="0.28" stroke="none"/>
  <rect x="241.0" y="585.0" width="4.0" height="39.0" fill="#E23B3B" opacity="0.28" stroke="none"/>
  <rect x="249.3" y="573.6" width="4.0" height="50.4" fill="#E23B3B" opacity="0.28" stroke="none"/>
  <rect x="257.7" y="514.4" width="4.0" height="109.6" fill="#E23B3B" opacity="0.28" stroke="none"/>
  <rect x="266.0" y="590.9" width="4.0" height="33.1" fill="#4CAF50" opacity="0.28" stroke="none"/>
  <rect x="274.3" y="595.8" width="4.0" height="28.2" fill="#4CAF50" opacity="0.28" stroke="none"/>
  <rect x="282.6" y="577.4" width="4.0" height="46.6" fill="#4CAF50" opacity="0.28" stroke="none"/>
  <rect x="291.0" y="590.1" width="4.0" height="33.9" fill="#E23B3B" opacity="0.28" stroke="none"/>
  <rect x="299.3" y="554.3" width="4.0" height="69.7" fill="#E23B3B" opacity="0.28" stroke="none"/>
  <rect x="307.6" y="581.4" width="4.0" height="42.6" fill="#E23B3B" opacity="0.28" stroke="none"/>
  <rect x="316.0" y="594.7" width="4.0" height="29.3" fill="#4CAF50" opacity="0.28" stroke="none"/>
  <rect x="324.3" y="568.7" width="4.0" height="55.3" fill="#4CAF50" opacity="0.28" stroke="none"/>
  <rect x="332.6" y="593.7" width="4.0" height="30.3" fill="#E23B3B" opacity="0.28" stroke="none"/>
  <rect x="340.9" y="594.9" width="4.0" height="29.1" fill="#E23B3B" opacity="0.28" stroke="none"/>
  <rect x="349.3" y="603.5" width="4.0" height="20.5" fill="#E23B3B" opacity="0.28" stroke="none"/>
  <rect x="357.6" y="591.8" width="4.0" height="32.2" fill="#E23B3B" opacity="0.28" stroke="none"/>
  <rect x="365.9" y="591.8" width="4.0" height="32.2" fill="#4CAF50" opacity="0.28" stroke="none"/>
  <rect x="374.3" y="598.0" width="4.0" height="26.0" fill="#E23B3B" opacity="0.28" stroke="none"/>
  <rect x="382.6" y="592.6" width="4.0" height="31.4" fill="#4CAF50" opacity="0.28" stroke="none"/>
  <rect x="390.9" y="590.1" width="4.0" height="33.9" fill="#E23B3B" opacity="0.28" stroke="none"/>
  <rect x="399.2" y="598.3" width="4.0" height="25.7" fill="#4CAF50" opacity="0.28" stroke="none"/>
  <rect x="407.6" y="566.3" width="4.0" height="57.7" fill="#4CAF50" opacity="0.28" stroke="none"/>
  <rect x="415.9" y="564.3" width="4.0" height="59.7" fill="#E23B3B" opacity="0.28" stroke="none"/>
  <rect x="424.2" y="567.6" width="4.0" height="56.4" fill="#4CAF50" opacity="0.28" stroke="none"/>
  <rect x="432.5" y="589.6" width="4.0" height="34.4" fill="#E23B3B" opacity="0.28" stroke="none"/>
  <rect x="440.9" y="595.0" width="4.0" height="29.0" fill="#E23B3B" opacity="0.28" stroke="none"/>
  <rect x="449.2" y="589.6" width="4.0" height="34.4" fill="#4CAF50" opacity="0.28" stroke="none"/>
  <rect x="457.5" y="592.8" width="4.0" height="31.2" fill="#E23B3B" opacity="0.28" stroke="none"/>
  <rect x="465.9" y="600.1" width="4.0" height="23.9" fill="#E23B3B" opacity="0.28" stroke="none"/>
  <rect x="474.2" y="605.2" width="4.0" height="18.8" fill="#4CAF50" opacity="0.28" stroke="none"/>
  <rect x="482.5" y="602.7" width="4.0" height="21.3" fill="#4CAF50" opacity="0.28" stroke="none"/>
  <rect x="490.8" y="609.1" width="4.0" height="14.9" fill="#E23B3B" opacity="0.28" stroke="none"/>
  <rect x="499.2" y="601.7" width="4.0" height="22.3" fill="#4CAF50" opacity="0.28" stroke="none"/>
  <rect x="507.5" y="598.7" width="4.0" height="25.3" fill="#4CAF50" opacity="0.28" stroke="none"/>
  <rect x="515.8" y="601.2" width="4.0" height="22.8" fill="#4CAF50" opacity="0.28" stroke="none"/>
  <rect x="524.1" y="599.8" width="4.0" height="24.2" fill="#E23B3B" opacity="0.28" stroke="none"/>
  <rect x="532.5" y="607.5" width="4.0" height="16.5" fill="#E23B3B" opacity="0.28" stroke="none"/>
  <rect x="540.8" y="604.3" width="4.0" height="19.7" fill="#E23B3B" opacity="0.28" stroke="none"/>
  <rect x="549.1" y="609.9" width="4.0" height="14.1" fill="#E23B3B" opacity="0.28" stroke="none"/>
  <rect x="557.5" y="602.4" width="4.0" height="21.6" fill="#4CAF50" opacity="0.28" stroke="none"/>
  <rect x="565.8" y="601.6" width="4.0" height="22.4" fill="#4CAF50" opacity="0.28" stroke="none"/>
  <rect x="574.1" y="607.3" width="4.0" height="16.7" fill="#E23B3B" opacity="0.28" stroke="none"/>
  <rect x="582.4" y="605.4" width="4.0" height="18.6" fill="#4CAF50" opacity="0.28" stroke="none"/>
  <rect x="590.8" y="606.1" width="4.0" height="17.9" fill="#E23B3B" opacity="0.28" stroke="none"/>
  <rect x="599.1" y="603.8" width="4.0" height="20.2" fill="#E23B3B" opacity="0.28" stroke="none"/>
  <rect x="607.4" y="603.1" width="4.0" height="20.9" fill="#E23B3B" opacity="0.28" stroke="none"/>
  <rect x="615.7" y="608.0" width="4.0" height="16.0" fill="#4CAF50" opacity="0.28" stroke="none"/>
  <rect x="624.1" y="606.2" width="4.0" height="17.8" fill="#E23B3B" opacity="0.28" stroke="none"/>
  <rect x="632.4" y="608.5" width="4.0" height="15.5" fill="#E23B3B" opacity="0.28" stroke="none"/>
  <rect x="640.7" y="601.8" width="4.0" height="22.2" fill="#E23B3B" opacity="0.28" stroke="none"/>
  <rect x="649.1" y="606.8" width="4.0" height="17.2" fill="#4CAF50" opacity="0.28" stroke="none"/>
  <rect x="657.4" y="606.1" width="4.0" height="17.9" fill="#4CAF50" opacity="0.28" stroke="none"/>
  <rect x="665.7" y="607.5" width="4.0" height="16.5" fill="#E23B3B" opacity="0.28" stroke="none"/>
  <rect x="674.0" y="604.0" width="4.0" height="20.0" fill="#E23B3B" opacity="0.28" stroke="none"/>
  <rect x="682.4" y="594.4" width="4.0" height="29.6" fill="#4CAF50" opacity="0.28" stroke="none"/>
  <rect x="690.7" y="605.9" width="4.0" height="18.1" fill="#4CAF50" opacity="0.28" stroke="none"/>
  <rect x="699.0" y="598.3" width="4.0" height="25.7" fill="#E23B3B" opacity="0.28" stroke="none"/>
  <rect x="707.4" y="609.5" width="4.0" height="14.5" fill="#4CAF50" opacity="0.28" stroke="none"/>
  <rect x="715.7" y="594.5" width="4.0" height="29.5" fill="#E23B3B" opacity="0.28" stroke="none"/>
  <rect x="724.0" y="599.2" width="4.0" height="24.8" fill="#4CAF50" opacity="0.28" stroke="none"/>
  <rect x="732.3" y="596.4" width="4.0" height="27.6" fill="#4CAF50" opacity="0.28" stroke="none"/>
  <rect x="740.7" y="592.5" width="4.0" height="31.5" fill="#E23B3B" opacity="0.28" stroke="none"/>
  <rect x="749.0" y="585.5" width="4.0" height="38.5" fill="#4CAF50" opacity="0.28" stroke="none"/>
  <rect x="757.3" y="591.8" width="4.0" height="32.2" fill="#4CAF50" opacity="0.28" stroke="none"/>
  <!-- SMA overlays -->
  <polyline points="18.2,656.6 26.5,653.7 34.8,650.0 43.1,646.8 51.5,644.0 59.8,640.9 68.1,637.6 76.5,633.0 84.8,628.2 93.1,622.8 101.4,617.1 109.8,611.7 118.1,606.0 126.4,601.0 134.7,595.9 143.1,590.2 151.4,585.3 159.7,579.0 168.1,574.5 176.4,569.3 184.7,564.1 193.0,558.9 201.4,553.4 209.7,547.8 218.0,542.4 226.4,536.1 234.7,530.2 243.0,524.5 251.3,519.2 259.7,515.0 268.0,511.0 276.3,505.9 284.6,500.5 293.0,495.0 301.3,489.3 309.6,484.4 318.0,479.6 326.3,472.4 334.6,466.2 342.9,460.7 351.3,456.4 359.6,453.5 367.9,449.7 376.2,446.1 384.6,442.1 392.9,438.1 401.2,434.1 409.6,426.4 417.9,420.1 426.2,413.8 434.5,408.4 442.9,403.3 451.2,397.6 459.5,391.4 467.9,385.6 476.2,379.6 484.5,373.4 492.8,368.4 501.2,363.3 509.5,358.2 517.8,353.1 526.1,348.2 534.5,344.3 542.8,340.5 551.1,337.1 559.5,333.5 567.8,328.9 576.1,324.5 584.4,319.5 592.8,316.0 601.1,313.1 609.4,311.1 617.7,309.0 626.1,307.1 634.4,305.9 642.7,305.6 651.1,304.7 659.4,304.1 667.7,303.3 676.0,302.6 684.4,302.1 692.7,301.5 701.0,301.1 709.4,300.3 717.7,300.2 726.0,300.0 734.3,299.1 742.7,299.6 751.0,298.7 759.3,297.5" fill="none" stroke="#F59E0B" stroke-width="1.6" opacity="0.92" stroke-linejoin="round"/>
  <!-- M2 overlays: AVWAP + POC (over SMA, under candles) -->
  <rect x="14.0" y="198.2" width="914.0" height="354.3" fill="#5b9dff" fill-opacity="0.06" stroke="none"/><line x1="14.0" y1="198.2" x2="928.0" y2="198.2" stroke="#5b9dff" stroke-width="1" stroke-opacity="0.32"/><line x1="920.0" y1="198.2" x2="928.0" y2="198.2" stroke="#5b9dff" stroke-width="1.5" stroke-opacity="0.7"/><line x1="14.0" y1="552.5" x2="928.0" y2="552.5" stroke="#5b9dff" stroke-width="1" stroke-opacity="0.32"/><line x1="920.0" y1="552.5" x2="928.0" y2="552.5" stroke="#5b9dff" stroke-width="1.5" stroke-opacity="0.7"/><line x1="14.0" y1="360.6" x2="928.0" y2="360.6" stroke="#5b9dff" stroke-width="1.5" stroke-dasharray="6 4" opacity="0.85"/><rect x="856.8" y="611.6" width="71.2" height="11.4" fill="#54607d" fill-opacity="0.34" stroke="none"/><rect x="893.1" y="582.0" width="34.9" height="28.5" fill="#54607d" fill-opacity="0.34" stroke="none"/><rect x="859.6" y="552.5" width="68.4" height="28.5" fill="#54607d" fill-opacity="0.34" stroke="none"/><rect x="831.4" y="523.0" width="96.6" height="28.5" fill="#5b9dff" fill-opacity="0.50" stroke="none"/><rect x="854.5" y="493.5" width="73.5" height="28.5" fill="#5b9dff" fill-opacity="0.50" stroke="none"/><rect x="897.0" y="463.9" width="31.0" height="28.5" fill="#5b9dff" fill-opacity="0.50" stroke="none"/><rect x="916.6" y="434.4" width="11.4" height="28.5" fill="#5b9dff" fill-opacity="0.50" stroke="none"/><rect x="916.5" y="404.9" width="11.5" height="28.5" fill="#5b9dff" fill-opacity="0.50" stroke="none"/><rect x="871.4" y="375.4" width="56.6" height="28.5" fill="#5b9dff" fill-opacity="0.50" stroke="none"/><rect x="776.6" y="345.8" width="151.4" height="28.5" fill="#5b9dff" fill-opacity="0.50" stroke="none"/><rect x="787.7" y="316.3" width="140.3" height="28.5" fill="#5b9dff" fill-opacity="0.50" stroke="none"/><rect x="827.3" y="286.8" width="100.7" height="28.5" fill="#5b9dff" fill-opacity="0.50" stroke="none"/><rect x="826.8" y="257.3" width="101.2" height="28.5" fill="#5b9dff" fill-opacity="0.50" stroke="none"/><rect x="873.8" y="227.7" width="54.2" height="28.5" fill="#5b9dff" fill-opacity="0.50" stroke="none"/><rect x="882.7" y="198.2" width="45.3" height="28.5" fill="#5b9dff" fill-opacity="0.50" stroke="none"/>
  <!-- candlesticks -->
  <line x1="18.2" y1="505.5" x2="18.2" y2="529.6" stroke="#4CAF50" stroke-width="1"/>
  <rect x="16.2" y="522.0" width="4.0" height="6.6" fill="#4CAF50" stroke="none"/>
  <line x1="26.5" y1="505.5" x2="26.5" y2="533.3" stroke="#4CAF50" stroke-width="1"/>
  <rect x="24.5" y="522.5" width="4.0" height="4.2" fill="#4CAF50" stroke="none"/>
  <line x1="34.8" y1="515.4" x2="34.8" y2="555.9" stroke="#E23B3B" stroke-width="1"/>
  <rect x="32.8" y="515.4" width="4.0" height="38.2" fill="#E23B3B" stroke="none"/>
  <line x1="43.1" y1="547.0" x2="43.1" y2="590.4" stroke="#E23B3B" stroke-width="1"/>
  <rect x="41.1" y="553.6" width="4.0" height="10.8" fill="#E23B3B" stroke="none"/>
  <line x1="51.5" y1="545.1" x2="51.5" y2="580.9" stroke="#4CAF50" stroke-width="1"/>
  <rect x="49.5" y="569.6" width="4.0" height="3.8" fill="#4CAF50" stroke="none"/>
  <line x1="59.8" y1="524.8" x2="59.8" y2="565.8" stroke="#4CAF50" stroke-width="1"/>
  <rect x="57.8" y="554.1" width="4.0" height="1.5" fill="#4CAF50" stroke="none"/>
  <line x1="68.1" y1="542.8" x2="68.1" y2="584.2" stroke="#E23B3B" stroke-width="1"/>
  <rect x="66.1" y="557.8" width="4.0" height="15.1" fill="#E23B3B" stroke="none"/>
  <line x1="76.5" y1="499.9" x2="76.5" y2="564.0" stroke="#4CAF50" stroke-width="1"/>
  <rect x="74.5" y="532.4" width="4.0" height="31.6" fill="#4CAF50" stroke="none"/>
  <line x1="84.8" y1="504.6" x2="84.8" y2="555.9" stroke="#4CAF50" stroke-width="1"/>
  <rect x="82.8" y="531.4" width="4.0" height="2.8" fill="#4CAF50" stroke="none"/>
  <line x1="93.1" y1="482.9" x2="93.1" y2="538.5" stroke="#4CAF50" stroke-width="1"/>
  <rect x="91.1" y="494.2" width="4.0" height="37.2" fill="#4CAF50" stroke="none"/>
  <line x1="101.4" y1="490.0" x2="101.4" y2="552.2" stroke="#4CAF50" stroke-width="1"/>
  <rect x="99.4" y="493.3" width="4.0" height="19.3" fill="#4CAF50" stroke="none"/>
  <line x1="109.8" y1="482.4" x2="109.8" y2="511.6" stroke="#E23B3B" stroke-width="1"/>
  <rect x="107.8" y="486.2" width="4.0" height="12.3" fill="#E23B3B" stroke="none"/>
  <line x1="118.1" y1="457.0" x2="118.1" y2="498.5" stroke="#4CAF50" stroke-width="1"/>
  <rect x="116.1" y="467.3" width="4.0" height="25.4" fill="#4CAF50" stroke="none"/>
  <line x1="126.4" y1="451.3" x2="126.4" y2="498.5" stroke="#E23B3B" stroke-width="1"/>
  <rect x="124.4" y="460.8" width="4.0" height="25.4" fill="#E23B3B" stroke="none"/>
  <line x1="134.7" y1="486.2" x2="134.7" y2="518.7" stroke="#E23B3B" stroke-width="1"/>
  <rect x="132.8" y="486.2" width="4.0" height="12.7" fill="#E23B3B" stroke="none"/>
  <line x1="143.1" y1="486.7" x2="143.1" y2="548.9" stroke="#4CAF50" stroke-width="1"/>
  <rect x="141.1" y="492.3" width="4.0" height="12.3" fill="#4CAF50" stroke="none"/>
  <line x1="151.4" y1="473.9" x2="151.4" y2="531.0" stroke="#E23B3B" stroke-width="1"/>
  <rect x="149.4" y="503.2" width="4.0" height="5.2" fill="#E23B3B" stroke="none"/>
  <line x1="159.7" y1="469.7" x2="159.7" y2="524.4" stroke="#4CAF50" stroke-width="1"/>
  <rect x="157.7" y="477.2" width="4.0" height="42.4" fill="#4CAF50" stroke="none"/>
  <line x1="168.1" y1="484.3" x2="168.1" y2="520.1" stroke="#E23B3B" stroke-width="1"/>
  <rect x="166.1" y="490.9" width="4.0" height="25.4" fill="#E23B3B" stroke="none"/>
  <line x1="176.4" y1="450.9" x2="176.4" y2="535.7" stroke="#4CAF50" stroke-width="1"/>
  <rect x="174.4" y="453.2" width="4.0" height="38.6" fill="#4CAF50" stroke="none"/>
  <line x1="184.7" y1="421.2" x2="184.7" y2="462.6" stroke="#4CAF50" stroke-width="1"/>
  <rect x="182.7" y="441.0" width="4.0" height="21.7" fill="#4CAF50" stroke="none"/>
  <line x1="193.0" y1="396.2" x2="193.0" y2="478.7" stroke="#E23B3B" stroke-width="1"/>
  <rect x="191.0" y="432.0" width="4.0" height="12.7" fill="#E23B3B" stroke="none"/>
  <line x1="201.4" y1="377.8" x2="201.4" y2="444.7" stroke="#E23B3B" stroke-width="1"/>
  <rect x="199.4" y="436.2" width="4.0" height="7.1" fill="#E23B3B" stroke="none"/>
  <line x1="209.7" y1="411.3" x2="209.7" y2="432.5" stroke="#4CAF50" stroke-width="1"/>
  <rect x="207.7" y="423.0" width="4.0" height="3.3" fill="#4CAF50" stroke="none"/>
  <line x1="218.0" y1="372.2" x2="218.0" y2="432.9" stroke="#4CAF50" stroke-width="1"/>
  <rect x="216.0" y="399.0" width="4.0" height="17.9" fill="#4CAF50" stroke="none"/>
  <line x1="226.4" y1="351.4" x2="226.4" y2="429.6" stroke="#4CAF50" stroke-width="1"/>
  <rect x="224.4" y="367.0" width="4.0" height="19.8" fill="#4CAF50" stroke="none"/>
  <line x1="234.7" y1="326.9" x2="234.7" y2="402.8" stroke="#E23B3B" stroke-width="1"/>
  <rect x="232.7" y="352.8" width="4.0" height="38.2" fill="#E23B3B" stroke="none"/>
  <line x1="243.0" y1="342.9" x2="243.0" y2="403.7" stroke="#E23B3B" stroke-width="1"/>
  <rect x="241.0" y="373.6" width="4.0" height="1.9" fill="#E23B3B" stroke="none"/>
  <line x1="251.3" y1="349.5" x2="251.3" y2="410.3" stroke="#E23B3B" stroke-width="1"/>
  <rect x="249.3" y="376.9" width="4.0" height="8.5" fill="#E23B3B" stroke="none"/>
  <line x1="259.7" y1="315.1" x2="259.7" y2="403.3" stroke="#E23B3B" stroke-width="1"/>
  <rect x="257.7" y="343.9" width="4.0" height="42.9" fill="#E23B3B" stroke="none"/>
  <line x1="268.0" y1="356.6" x2="268.0" y2="386.8" stroke="#4CAF50" stroke-width="1"/>
  <rect x="266.0" y="367.9" width="4.0" height="18.9" fill="#4CAF50" stroke="none"/>
  <line x1="276.3" y1="328.3" x2="276.3" y2="365.6" stroke="#4CAF50" stroke-width="1"/>
  <rect x="274.3" y="337.3" width="4.0" height="25.4" fill="#4CAF50" stroke="none"/>
  <line x1="284.6" y1="296.7" x2="284.6" y2="345.8" stroke="#4CAF50" stroke-width="1"/>
  <rect x="282.6" y="319.8" width="4.0" height="16.5" fill="#4CAF50" stroke="none"/>
  <line x1="293.0" y1="295.8" x2="293.0" y2="336.3" stroke="#E23B3B" stroke-width="1"/>
  <rect x="291.0" y="315.1" width="4.0" height="14.6" fill="#E23B3B" stroke="none"/>
  <line x1="301.3" y1="305.2" x2="301.3" y2="353.8" stroke="#E23B3B" stroke-width="1"/>
  <rect x="299.3" y="316.5" width="4.0" height="17.4" fill="#E23B3B" stroke="none"/>
  <line x1="309.6" y1="338.2" x2="309.6" y2="368.9" stroke="#E23B3B" stroke-width="1"/>
  <rect x="307.6" y="345.3" width="4.0" height="6.1" fill="#E23B3B" stroke="none"/>
  <line x1="318.0" y1="324.6" x2="318.0" y2="361.3" stroke="#4CAF50" stroke-width="1"/>
  <rect x="316.0" y="342.5" width="4.0" height="9.0" fill="#4CAF50" stroke="none"/>
  <line x1="326.3" y1="267.1" x2="326.3" y2="351.9" stroke="#4CAF50" stroke-width="1"/>
  <rect x="324.3" y="276.0" width="4.0" height="56.1" fill="#4CAF50" stroke="none"/>
  <line x1="334.6" y1="254.3" x2="334.6" y2="318.0" stroke="#E23B3B" stroke-width="1"/>
  <rect x="332.6" y="261.4" width="4.0" height="41.5" fill="#E23B3B" stroke="none"/>
  <line x1="342.9" y1="293.0" x2="342.9" y2="335.9" stroke="#E23B3B" stroke-width="1"/>
  <rect x="340.9" y="303.3" width="4.0" height="9.0" fill="#E23B3B" stroke="none"/>
  <line x1="351.3" y1="297.2" x2="351.3" y2="337.7" stroke="#E23B3B" stroke-width="1"/>
  <rect x="349.3" y="312.3" width="4.0" height="25.4" fill="#E23B3B" stroke="none"/>
  <line x1="359.6" y1="340.1" x2="359.6" y2="403.3" stroke="#E23B3B" stroke-width="1"/>
  <rect x="357.6" y="341.5" width="4.0" height="49.0" fill="#E23B3B" stroke="none"/>
  <line x1="367.9" y1="333.5" x2="367.9" y2="382.0" stroke="#4CAF50" stroke-width="1"/>
  <rect x="365.9" y="355.2" width="4.0" height="18.9" fill="#4CAF50" stroke="none"/>
  <line x1="376.2" y1="323.6" x2="376.2" y2="368.4" stroke="#E23B3B" stroke-width="1"/>
  <rect x="374.3" y="355.2" width="4.0" height="2.4" fill="#E23B3B" stroke="none"/>
  <line x1="384.6" y1="318.0" x2="384.6" y2="364.6" stroke="#4CAF50" stroke-width="1"/>
  <rect x="382.6" y="344.8" width="4.0" height="5.7" fill="#4CAF50" stroke="none"/>
  <line x1="392.9" y1="313.2" x2="392.9" y2="381.6" stroke="#E23B3B" stroke-width="1"/>
  <rect x="390.9" y="340.1" width="4.0" height="4.7" fill="#E23B3B" stroke="none"/>
  <line x1="401.2" y1="299.1" x2="401.2" y2="350.0" stroke="#4CAF50" stroke-width="1"/>
  <rect x="399.2" y="326.0" width="4.0" height="18.9" fill="#4CAF50" stroke="none"/>
  <line x1="409.6" y1="160.5" x2="409.6" y2="315.1" stroke="#4CAF50" stroke-width="1"/>
  <rect x="407.6" y="163.8" width="4.0" height="150.8" fill="#4CAF50" stroke="none"/>
  <line x1="417.9" y1="109.6" x2="417.9" y2="450.9" stroke="#E23B3B" stroke-width="1"/>
  <rect x="415.9" y="157.7" width="4.0" height="58.0" fill="#E23B3B" stroke="none"/>
  <line x1="426.2" y1="188.8" x2="426.2" y2="238.3" stroke="#4CAF50" stroke-width="1"/>
  <rect x="424.2" y="213.8" width="4.0" height="19.8" fill="#4CAF50" stroke="none"/>
  <line x1="434.5" y1="203.0" x2="434.5" y2="312.3" stroke="#E23B3B" stroke-width="1"/>
  <rect x="432.5" y="227.0" width="4.0" height="24.0" fill="#E23B3B" stroke="none"/>
  <line x1="442.9" y1="252.4" x2="442.9" y2="294.9" stroke="#E23B3B" stroke-width="1"/>
  <rect x="440.9" y="256.7" width="4.0" height="13.7" fill="#E23B3B" stroke="none"/>
  <line x1="451.2" y1="261.4" x2="451.2" y2="330.2" stroke="#4CAF50" stroke-width="1"/>
  <rect x="449.2" y="265.2" width="4.0" height="35.3" fill="#4CAF50" stroke="none"/>
  <line x1="459.5" y1="224.6" x2="459.5" y2="283.1" stroke="#E23B3B" stroke-width="1"/>
  <rect x="457.5" y="255.3" width="4.0" height="1.5" fill="#E23B3B" stroke="none"/>
  <line x1="467.9" y1="227.0" x2="467.9" y2="297.2" stroke="#E23B3B" stroke-width="1"/>
  <rect x="465.9" y="242.5" width="4.0" height="36.3" fill="#E23B3B" stroke="none"/>
  <line x1="476.2" y1="227.9" x2="476.2" y2="264.7" stroke="#4CAF50" stroke-width="1"/>
  <rect x="474.2" y="255.3" width="4.0" height="5.2" fill="#4CAF50" stroke="none"/>
  <line x1="484.5" y1="233.1" x2="484.5" y2="283.1" stroke="#4CAF50" stroke-width="1"/>
  <rect x="482.5" y="262.8" width="4.0" height="6.6" fill="#4CAF50" stroke="none"/>
  <line x1="492.8" y1="239.3" x2="492.8" y2="287.8" stroke="#E23B3B" stroke-width="1"/>
  <rect x="490.8" y="251.5" width="4.0" height="33.0" fill="#E23B3B" stroke="none"/>
  <line x1="501.2" y1="268.9" x2="501.2" y2="312.3" stroke="#4CAF50" stroke-width="1"/>
  <rect x="499.2" y="272.7" width="4.0" height="16.0" fill="#4CAF50" stroke="none"/>
  <line x1="509.5" y1="171.0" x2="509.5" y2="254.2" stroke="#4CAF50" stroke-width="1"/>
  <rect x="507.5" y="241.8" width="4.0" height="6.7" fill="#4CAF50" stroke="none"/>
  <line x1="517.8" y1="201.9" x2="517.8" y2="254.7" stroke="#4CAF50" stroke-width="1"/>
  <rect x="515.8" y="237.1" width="4.0" height="3.8" fill="#4CAF50" stroke="none"/>
  <line x1="526.1" y1="223.8" x2="526.1" y2="267.0" stroke="#E23B3B" stroke-width="1"/>
  <rect x="524.1" y="227.6" width="4.0" height="24.2" fill="#E23B3B" stroke="none"/>
  <line x1="534.5" y1="221.4" x2="534.5" y2="275.6" stroke="#E23B3B" stroke-width="1"/>
  <rect x="532.5" y="233.3" width="4.0" height="39.4" fill="#E23B3B" stroke="none"/>
  <line x1="542.8" y1="264.2" x2="542.8" y2="302.2" stroke="#E23B3B" stroke-width="1"/>
  <rect x="540.8" y="280.8" width="4.0" height="17.6" fill="#E23B3B" stroke="none"/>
  <line x1="551.1" y1="290.3" x2="551.1" y2="339.2" stroke="#E23B3B" stroke-width="1"/>
  <rect x="549.1" y="309.3" width="4.0" height="17.1" fill="#E23B3B" stroke="none"/>
  <line x1="559.5" y1="294.1" x2="559.5" y2="323.1" stroke="#4CAF50" stroke-width="1"/>
  <rect x="557.5" y="312.1" width="4.0" height="7.1" fill="#4CAF50" stroke="none"/>
  <line x1="567.8" y1="263.2" x2="567.8" y2="318.8" stroke="#4CAF50" stroke-width="1"/>
  <rect x="565.8" y="278.4" width="4.0" height="27.1" fill="#4CAF50" stroke="none"/>
  <line x1="576.1" y1="243.3" x2="576.1" y2="274.6" stroke="#E23B3B" stroke-width="1"/>
  <rect x="574.1" y="259.4" width="4.0" height="1.5" fill="#E23B3B" stroke="none"/>
  <line x1="584.4" y1="222.4" x2="584.4" y2="275.6" stroke="#4CAF50" stroke-width="1"/>
  <rect x="582.4" y="262.7" width="4.0" height="1.5" fill="#4CAF50" stroke="none"/>
  <line x1="592.8" y1="242.8" x2="592.8" y2="288.4" stroke="#E23B3B" stroke-width="1"/>
  <rect x="590.8" y="269.4" width="4.0" height="11.4" fill="#E23B3B" stroke="none"/>
  <line x1="601.1" y1="259.9" x2="601.1" y2="310.7" stroke="#E23B3B" stroke-width="1"/>
  <rect x="599.1" y="276.5" width="4.0" height="19.0" fill="#E23B3B" stroke="none"/>
  <line x1="609.4" y1="246.6" x2="609.4" y2="349.7" stroke="#E23B3B" stroke-width="1"/>
  <rect x="607.4" y="287.9" width="4.0" height="59.4" fill="#E23B3B" stroke="none"/>
  <line x1="617.7" y1="331.6" x2="617.7" y2="385.8" stroke="#4CAF50" stroke-width="1"/>
  <rect x="615.7" y="335.4" width="4.0" height="20.9" fill="#4CAF50" stroke="none"/>
  <line x1="626.1" y1="306.4" x2="626.1" y2="353.9" stroke="#E23B3B" stroke-width="1"/>
  <rect x="624.1" y="316.4" width="4.0" height="13.3" fill="#E23B3B" stroke="none"/>
  <line x1="634.4" y1="307.9" x2="634.4" y2="348.2" stroke="#E23B3B" stroke-width="1"/>
  <rect x="632.4" y="333.5" width="4.0" height="2.9" fill="#E23B3B" stroke="none"/>
  <line x1="642.7" y1="317.4" x2="642.7" y2="484.1" stroke="#E23B3B" stroke-width="1"/>
  <rect x="640.7" y="334.5" width="4.0" height="21.4" fill="#E23B3B" stroke="none"/>
  <line x1="651.1" y1="327.8" x2="651.1" y2="368.2" stroke="#4CAF50" stroke-width="1"/>
  <rect x="649.1" y="345.4" width="4.0" height="1.5" fill="#4CAF50" stroke="none"/>
  <line x1="659.4" y1="331.1" x2="659.4" y2="375.3" stroke="#4CAF50" stroke-width="1"/>
  <rect x="657.4" y="341.1" width="4.0" height="22.3" fill="#4CAF50" stroke="none"/>
  <line x1="667.7" y1="318.8" x2="667.7" y2="364.4" stroke="#E23B3B" stroke-width="1"/>
  <rect x="665.7" y="343.5" width="4.0" height="5.2" fill="#E23B3B" stroke="none"/>
  <line x1="676.0" y1="341.1" x2="676.0" y2="371.5" stroke="#E23B3B" stroke-width="1"/>
  <rect x="674.0" y="348.2" width="4.0" height="1.5" fill="#E23B3B" stroke="none"/>
  <line x1="684.4" y1="325.4" x2="684.4" y2="369.1" stroke="#4CAF50" stroke-width="1"/>
  <rect x="682.4" y="344.0" width="4.0" height="12.8" fill="#4CAF50" stroke="none"/>
  <line x1="692.7" y1="296.9" x2="692.7" y2="338.7" stroke="#4CAF50" stroke-width="1"/>
  <rect x="690.7" y="308.3" width="4.0" height="29.5" fill="#4CAF50" stroke="none"/>
  <line x1="701.0" y1="270.8" x2="701.0" y2="308.3" stroke="#E23B3B" stroke-width="1"/>
  <rect x="699.0" y="290.8" width="4.0" height="10.0" fill="#E23B3B" stroke="none"/>
  <line x1="709.4" y1="280.3" x2="709.4" y2="313.6" stroke="#4CAF50" stroke-width="1"/>
  <rect x="707.4" y="286.0" width="4.0" height="27.6" fill="#4CAF50" stroke="none"/>
  <line x1="717.7" y1="288.9" x2="717.7" y2="338.7" stroke="#E23B3B" stroke-width="1"/>
  <rect x="715.7" y="298.8" width="4.0" height="31.8" fill="#E23B3B" stroke="none"/>
  <line x1="726.0" y1="324.5" x2="726.0" y2="356.8" stroke="#4CAF50" stroke-width="1"/>
  <rect x="724.0" y="339.2" width="4.0" height="9.0" fill="#4CAF50" stroke="none"/>
  <line x1="734.3" y1="296.9" x2="734.3" y2="357.7" stroke="#4CAF50" stroke-width="1"/>
  <rect x="732.3" y="299.3" width="4.0" height="41.8" fill="#4CAF50" stroke="none"/>
  <line x1="742.7" y1="276.5" x2="742.7" y2="324.0" stroke="#E23B3B" stroke-width="1"/>
  <rect x="740.7" y="276.5" width="4.0" height="23.8" fill="#E23B3B" stroke="none"/>
  <line x1="751.0" y1="258.0" x2="751.0" y2="304.5" stroke="#4CAF50" stroke-width="1"/>
  <rect x="749.0" y="259.4" width="4.0" height="45.1" fill="#4CAF50" stroke="none"/>
  <line x1="759.3" y1="228.5" x2="759.3" y2="308.8" stroke="#4CAF50" stroke-width="1"/>
  <rect x="757.3" y="252.3" width="4.0" height="6.7" fill="#4CAF50" stroke="none"/>
  <!-- highlight zone -->
  
  <!-- price axis -->
  <text x="936.0" y="546.1" fill="#6b7a99" font-size="10" font-family="monospace">54.00</text>
  <text x="936.0" y="451.1" fill="#6b7a99" font-size="10" font-family="monospace">56.00</text>
  <text x="936.0" y="356.0" fill="#6b7a99" font-size="10" font-family="monospace">58.00</text>
  <text x="936.0" y="166.0" fill="#6b7a99" font-size="10" font-family="monospace">62.00</text>
  <rect x="932.0" y="242.3" width="58" height="18" rx="2" fill="#4CAF50"/><text x="961.0" y="255.3" fill="#ffffff" font-size="10" font-weight="bold" font-family="monospace" text-anchor="middle">60.10</text>
  <!-- % change callout -->
  
  <!-- date labels -->
  <text x="18.2" y="630" fill="#4a556a" font-size="9" text-anchor="start">2026-05-07</text>
  <text x="168.1" y="630" fill="#4a556a" font-size="9" text-anchor="middle">2026-06-03</text>
  <text x="318.0" y="630" fill="#4a556a" font-size="9" text-anchor="middle">2026-06-30</text>
  <text x="459.5" y="630" fill="#4a556a" font-size="9" text-anchor="middle">2026-07-24</text>
  <text x="609.4" y="630" fill="#4a556a" font-size="9" text-anchor="middle">2026-08-19</text>
  <text x="759.3" y="630" fill="#4a556a" font-size="9" text-anchor="end">2026-09-15</text>
  <!-- M2 overlay labels (top-most in price panel, never occluded) -->
  <rect x="852.0" y="364.1" width="71" height="17" rx="4" fill="#0E1420" fill-opacity="0.82" stroke="#5b9dff" stroke-opacity="0.55" stroke-width="1"/><text x="916.0" y="376.6" fill="#5b9dff" font-size="11" text-anchor="end" font-family="sans-serif">POC 57.82</text><rect x="871.0" y="289.0" width="52" height="17" rx="4" fill="#0E1420" fill-opacity="0.82" stroke="#F59E0B" stroke-opacity="0.55" stroke-width="1"/><text x="916.0" y="301.5" fill="#F59E0B" font-size="11" text-anchor="end" font-family="sans-serif">50 SMA</text>
  <!-- subpanels -->
  <line x1="14" y1="632" x2="928" y2="632" stroke="#232A3D" stroke-width="1"/>
  <text x="18" y="645" fill="#6b7a99" font-size="9" font-weight="700" letter-spacing="0.12em">MACD</text>
  <line x1="14" y1="734.0" x2="928" y2="734.0" stroke="#2f3750" stroke-width="1"/>
  <rect x="16.2" y="733.9" width="4.0" height="1.0" fill="#4CAF50" opacity="0.5" stroke="none"/>
  <rect x="24.5" y="734.0" width="4.0" height="1.0" fill="#E23B3B" opacity="0.5" stroke="none"/>
  <rect x="32.8" y="734.0" width="4.0" height="2.3" fill="#E23B3B" opacity="0.5" stroke="none"/>
  <rect x="41.1" y="734.0" width="4.0" height="4.2" fill="#E23B3B" opacity="0.5" stroke="none"/>
  <rect x="49.5" y="734.0" width="4.0" height="5.6" fill="#E23B3B" opacity="0.5" stroke="none"/>
  <rect x="57.8" y="734.0" width="4.0" height="5.7" fill="#E23B3B" opacity="0.5" stroke="none"/>
  <rect x="66.1" y="734.0" width="4.0" height="6.6" fill="#E23B3B" opacity="0.5" stroke="none"/>
  <rect x="74.5" y="734.0" width="4.0" height="5.0" fill="#E23B3B" opacity="0.5" stroke="none"/>
  <rect x="82.8" y="734.0" width="4.0" height="3.8" fill="#E23B3B" opacity="0.5" stroke="none"/>
  <rect x="91.1" y="734.0" width="4.0" height="1.3" fill="#E23B3B" opacity="0.5" stroke="none"/>
  <rect x="99.4" y="733.7" width="4.0" height="1.0" fill="#4CAF50" opacity="0.5" stroke="none"/>
  <rect x="107.8" y="733.2" width="4.0" height="1.0" fill="#4CAF50" opacity="0.5" stroke="none"/>
  <rect x="116.1" y="731.5" width="4.0" height="2.5" fill="#4CAF50" opacity="0.5" stroke="none"/>
  <rect x="124.4" y="731.7" width="4.0" height="2.3" fill="#4CAF50" opacity="0.5" stroke="none"/>
  <rect x="132.8" y="732.7" width="4.0" height="1.3" fill="#4CAF50" opacity="0.5" stroke="none"/>
  <rect x="141.1" y="733.3" width="4.0" height="1.0" fill="#4CAF50" opacity="0.5" stroke="none"/>
  <rect x="149.4" y="734.0" width="4.0" height="1.0" fill="#E23B3B" opacity="0.5" stroke="none"/>
  <rect x="157.7" y="734.0" width="4.0" height="1.0" fill="#E23B3B" opacity="0.5" stroke="none"/>
  <rect x="166.1" y="734.0" width="4.0" height="1.9" fill="#E23B3B" opacity="0.5" stroke="none"/>
  <rect x="174.4" y="734.0" width="4.0" height="1.0" fill="#E23B3B" opacity="0.5" stroke="none"/>
  <rect x="182.7" y="732.4" width="4.0" height="1.6" fill="#4CAF50" opacity="0.5" stroke="none"/>
  <rect x="191.0" y="731.8" width="4.0" height="2.2" fill="#4CAF50" opacity="0.5" stroke="none"/>
  <rect x="199.4" y="731.7" width="4.0" height="2.3" fill="#4CAF50" opacity="0.5" stroke="none"/>
  <rect x="207.7" y="730.9" width="4.0" height="3.1" fill="#4CAF50" opacity="0.5" stroke="none"/>
  <rect x="216.0" y="729.6" width="4.0" height="4.4" fill="#4CAF50" opacity="0.5" stroke="none"/>
  <rect x="224.4" y="727.7" width="4.0" height="6.3" fill="#4CAF50" opacity="0.5" stroke="none"/>
  <rect x="232.7" y="728.2" width="4.0" height="5.8" fill="#4CAF50" opacity="0.5" stroke="none"/>
  <rect x="241.0" y="728.3" width="4.0" height="5.7" fill="#4CAF50" opacity="0.5" stroke="none"/>
  <rect x="249.3" y="729.4" width="4.0" height="4.6" fill="#4CAF50" opacity="0.5" stroke="none"/>
  <rect x="257.7" y="730.6" width="4.0" height="3.4" fill="#4CAF50" opacity="0.5" stroke="none"/>
  <rect x="266.0" y="730.9" width="4.0" height="3.1" fill="#4CAF50" opacity="0.5" stroke="none"/>
  <rect x="274.3" y="730.0" width="4.0" height="4.0" fill="#4CAF50" opacity="0.5" stroke="none"/>
  <rect x="282.6" y="729.1" width="4.0" height="4.9" fill="#4CAF50" opacity="0.5" stroke="none"/>
  <rect x="291.0" y="729.6" width="4.0" height="4.4" fill="#4CAF50" opacity="0.5" stroke="none"/>
  <rect x="299.3" y="730.6" width="4.0" height="3.4" fill="#4CAF50" opacity="0.5" stroke="none"/>
  <rect x="307.6" y="732.6" width="4.0" height="1.4" fill="#4CAF50" opacity="0.5" stroke="none"/>
  <rect x="316.0" y="733.8" width="4.0" height="1.0" fill="#4CAF50" opacity="0.5" stroke="none"/>
  <rect x="324.3" y="731.6" width="4.0" height="2.4" fill="#4CAF50" opacity="0.5" stroke="none"/>
  <rect x="332.6" y="732.0" width="4.0" height="2.0" fill="#4CAF50" opacity="0.5" stroke="none"/>
  <rect x="340.9" y="733.1" width="4.0" height="1.0" fill="#4CAF50" opacity="0.5" stroke="none"/>
  <rect x="349.3" y="734.0" width="4.0" height="1.5" fill="#E23B3B" opacity="0.5" stroke="none"/>
  <rect x="357.6" y="734.0" width="4.0" height="5.8" fill="#E23B3B" opacity="0.5" stroke="none"/>
  <rect x="365.9" y="734.0" width="4.0" height="6.8" fill="#E23B3B" opacity="0.5" stroke="none"/>
  <rect x="374.3" y="734.0" width="4.0" height="7.4" fill="#E23B3B" opacity="0.5" stroke="none"/>
  <rect x="382.6" y="734.0" width="4.0" height="7.1" fill="#E23B3B" opacity="0.5" stroke="none"/>
  <rect x="390.9" y="734.0" width="4.0" height="6.8" fill="#E23B3B" opacity="0.5" stroke="none"/>
  <rect x="399.2" y="734.0" width="4.0" height="5.6" fill="#E23B3B" opacity="0.5" stroke="none"/>
  <rect x="407.6" y="730.8" width="4.0" height="3.2" fill="#4CAF50" opacity="0.5" stroke="none"/>
  <rect x="415.9" y="728.2" width="4.0" height="5.8" fill="#4CAF50" opacity="0.5" stroke="none"/>
  <rect x="424.2" y="727.1" width="4.0" height="6.9" fill="#4CAF50" opacity="0.5" stroke="none"/>
  <rect x="432.5" y="728.8" width="4.0" height="5.2" fill="#4CAF50" opacity="0.5" stroke="none"/>
  <rect x="440.9" y="731.4" width="4.0" height="2.6" fill="#4CAF50" opacity="0.5" stroke="none"/>
  <rect x="449.2" y="733.2" width="4.0" height="1.0" fill="#4CAF50" opacity="0.5" stroke="none"/>
  <rect x="457.5" y="734.0" width="4.0" height="1.0" fill="#E23B3B" opacity="0.5" stroke="none"/>
  <rect x="465.9" y="734.0" width="4.0" height="2.3" fill="#E23B3B" opacity="0.5" stroke="none"/>
  <rect x="474.2" y="734.0" width="4.0" height="2.6" fill="#E23B3B" opacity="0.5" stroke="none"/>
  <rect x="482.5" y="734.0" width="4.0" height="3.2" fill="#E23B3B" opacity="0.5" stroke="none"/>
  <rect x="490.8" y="734.0" width="4.0" height="4.8" fill="#E23B3B" opacity="0.5" stroke="none"/>
  <rect x="499.2" y="734.0" width="4.0" height="5.3" fill="#E23B3B" opacity="0.5" stroke="none"/>
  <rect x="507.5" y="734.0" width="4.0" height="4.0" fill="#E23B3B" opacity="0.5" stroke="none"/>
  <rect x="515.8" y="734.0" width="4.0" height="3.0" fill="#E23B3B" opacity="0.5" stroke="none"/>
  <rect x="524.1" y="734.0" width="4.0" height="3.1" fill="#E23B3B" opacity="0.5" stroke="none"/>
  <rect x="532.5" y="734.0" width="4.0" height="4.3" fill="#E23B3B" opacity="0.5" stroke="none"/>
  <rect x="540.8" y="734.0" width="4.0" height="6.3" fill="#E23B3B" opacity="0.5" stroke="none"/>
  <rect x="549.1" y="734.0" width="4.0" height="8.8" fill="#E23B3B" opacity="0.5" stroke="none"/>
  <rect x="557.5" y="734.0" width="4.0" height="9.4" fill="#E23B3B" opacity="0.5" stroke="none"/>
  <rect x="565.8" y="734.0" width="4.0" height="7.8" fill="#E23B3B" opacity="0.5" stroke="none"/>
  <rect x="574.1" y="734.0" width="4.0" height="5.6" fill="#E23B3B" opacity="0.5" stroke="none"/>
  <rect x="582.4" y="734.0" width="4.0" height="4.2" fill="#E23B3B" opacity="0.5" stroke="none"/>
  <rect x="590.8" y="734.0" width="4.0" height="4.1" fill="#E23B3B" opacity="0.5" stroke="none"/>
  <rect x="599.1" y="734.0" width="4.0" height="4.7" fill="#E23B3B" opacity="0.5" stroke="none"/>
  <rect x="607.4" y="734.0" width="4.0" height="7.4" fill="#E23B3B" opacity="0.5" stroke="none"/>
  <rect x="615.7" y="734.0" width="4.0" height="8.3" fill="#E23B3B" opacity="0.5" stroke="none"/>
  <rect x="624.1" y="734.0" width="4.0" height="8.1" fill="#E23B3B" opacity="0.5" stroke="none"/>
  <rect x="632.4" y="734.0" width="4.0" height="8.0" fill="#E23B3B" opacity="0.5" stroke="none"/>
  <rect x="640.7" y="734.0" width="4.0" height="8.5" fill="#E23B3B" opacity="0.5" stroke="none"/>
  <rect x="649.1" y="734.0" width="4.0" height="7.8" fill="#E23B3B" opacity="0.5" stroke="none"/>
  <rect x="657.4" y="734.0" width="4.0" height="6.8" fill="#E23B3B" opacity="0.5" stroke="none"/>
  <rect x="665.7" y="734.0" width="4.0" height="6.1" fill="#E23B3B" opacity="0.5" stroke="none"/>
  <rect x="674.0" y="734.0" width="4.0" height="5.4" fill="#E23B3B" opacity="0.5" stroke="none"/>
  <rect x="682.4" y="734.0" width="4.0" height="4.3" fill="#E23B3B" opacity="0.5" stroke="none"/>
  <rect x="690.7" y="734.0" width="4.0" height="1.6" fill="#E23B3B" opacity="0.5" stroke="none"/>
  <rect x="699.0" y="733.4" width="4.0" height="1.0" fill="#4CAF50" opacity="0.5" stroke="none"/>
  <rect x="707.4" y="731.2" width="4.0" height="2.8" fill="#4CAF50" opacity="0.5" stroke="none"/>
  <rect x="715.7" y="732.2" width="4.0" height="1.8" fill="#4CAF50" opacity="0.5" stroke="none"/>
  <rect x="724.0" y="733.2" width="4.0" height="1.0" fill="#4CAF50" opacity="0.5" stroke="none"/>
  <rect x="732.3" y="731.9" width="4.0" height="2.1" fill="#4CAF50" opacity="0.5" stroke="none"/>
  <rect x="740.7" y="731.2" width="4.0" height="2.8" fill="#4CAF50" opacity="0.5" stroke="none"/>
  <rect x="749.0" y="728.8" width="4.0" height="5.2" fill="#4CAF50" opacity="0.5" stroke="none"/>
  <rect x="757.3" y="727.2" width="4.0" height="6.8" fill="#4CAF50" opacity="0.5" stroke="none"/>
  <polyline points="18.2,707.1 26.5,707.5 34.8,710.1 43.1,713.0 51.5,715.9 59.8,717.4 68.1,719.9 76.5,719.6 84.8,719.4 93.1,717.1 101.4,715.5 109.8,714.7 118.1,712.5 126.4,712.1 134.7,712.8 143.1,713.2 151.4,714.8 159.7,714.3 168.1,716.5 176.4,714.6 184.7,712.6 193.0,711.4 201.4,710.7 209.7,709.2 218.0,706.8 226.4,703.2 234.7,702.3 243.0,701.0 251.3,700.9 259.7,701.3 268.0,700.9 276.3,699.0 284.6,696.8 293.0,696.2 301.3,696.4 309.6,698.0 318.0,699.2 326.3,696.4 334.6,696.3 342.9,697.2 351.3,699.9 359.6,705.7 367.9,708.4 376.2,710.9 384.6,712.3 392.9,713.7 401.2,713.9 409.6,704.3 417.9,700.2 426.2,697.4 434.5,697.8 442.9,699.8 451.2,701.4 459.5,702.5 467.9,705.1 476.2,706.0 484.5,707.5 492.8,710.3 501.2,712.0 509.5,711.8 517.8,711.5 526.1,712.5 534.5,714.7 542.8,718.3 551.1,723.0 559.5,726.0 567.8,726.3 576.1,725.5 584.4,725.2 592.8,726.1 601.1,727.8 609.4,732.4 617.7,735.3 626.1,737.2 634.4,739.1 642.7,741.7 651.1,743.0 659.4,743.7 667.7,744.5 676.0,745.2 684.4,745.2 692.7,742.9 701.0,740.5 709.4,737.6 717.7,738.1 726.0,739.0 734.3,737.1 742.7,735.7 751.0,732.0 759.3,728.8" fill="none" stroke="#5b9dff" stroke-width="1.5" stroke-linejoin="round" stroke-linecap="round"/>
  <polyline points="18.2,707.2 26.5,707.2 34.8,707.8 43.1,708.9 51.5,710.3 59.8,711.7 68.1,713.3 76.5,714.6 84.8,715.5 93.1,715.9 101.4,715.8 109.8,715.6 118.1,715.0 126.4,714.4 134.7,714.1 143.1,713.9 151.4,714.1 159.7,714.1 168.1,714.6 176.4,714.6 184.7,714.2 193.0,713.6 201.4,713.1 209.7,712.3 218.0,711.2 226.4,709.6 234.7,708.1 243.0,706.7 251.3,705.5 259.7,704.7 268.0,703.9 276.3,702.9 284.6,701.7 293.0,700.6 301.3,699.8 309.6,699.4 318.0,699.4 326.3,698.8 334.6,698.3 342.9,698.1 351.3,698.4 359.6,699.9 367.9,701.6 376.2,703.4 384.6,705.2 392.9,706.9 401.2,708.3 409.6,707.5 417.9,706.0 426.2,704.3 434.5,703.0 442.9,702.4 451.2,702.2 459.5,702.2 467.9,702.8 476.2,703.4 484.5,704.3 492.8,705.5 501.2,706.8 509.5,707.8 517.8,708.5 526.1,709.3 534.5,710.4 542.8,712.0 551.1,714.2 559.5,716.6 567.8,718.5 576.1,719.9 584.4,721.0 592.8,722.0 601.1,723.2 609.4,725.0 617.7,727.1 626.1,729.1 634.4,731.1 642.7,733.2 651.1,735.2 659.4,736.9 667.7,738.4 676.0,739.8 684.4,740.8 692.7,741.2 701.0,741.1 709.4,740.4 717.7,739.9 726.0,739.7 734.3,739.2 742.7,738.5 751.0,737.2 759.3,735.5" fill="none" stroke="#F59E0B" stroke-width="1.2" stroke-linejoin="round" stroke-linecap="round"/>
  <text x="936" y="732.8" fill="#4CAF50" font-size="9" font-family="monospace">0.143</text>
  <!-- header (rendered last so it sits on top) -->
  <rect x="0" y="0" width="1000" height="64" fill="#0A1020" opacity="0.9"/>
  <rect x="8.00" y="15.00" width="34.00" height="34.00" rx="8.93" fill="url(#mbTile_727462493)"/><rect x="8.00" y="15.00" width="34.00" height="34.00" rx="8.93" fill="url(#mbGlow_727462493)"/><rect x="8.00" y="15.00" width="34.00" height="34.00" rx="8.93" fill="url(#mbSheen_727462493)"/><path d="M17.35,38.03 L17.35,26.56 L23.30,32.94 L29.25,24.86 L29.25,38.03" fill="none" stroke="#15205a" stroke-opacity=".30" stroke-width="2.80" stroke-linecap="round" stroke-linejoin="round"/><path d="M17.35,37.10 L17.35,25.62 L23.30,32.00 L29.25,23.92 L29.25,37.10" fill="none" stroke="url(#mbInk_727462493)" stroke-width="2.80" stroke-linecap="round" stroke-linejoin="round"/>
  <text x="50.0" y="39.0" fill="#ffffff" font-size="20" font-weight="900" font-family="sans-serif" letter-spacing="0.07em">MASTERMIND</text>
  <text x="924.0" y="30.0" fill="#ffffff" font-size="26" font-weight="bold" text-anchor="end" font-family="sans-serif">WABC</text><text x="924.0" y="48.0" fill="#8899bb" font-size="13" text-anchor="end" letter-spacing="1" font-family="sans-serif">DAILY</text>
  <!-- footer -->
  <rect x="0" y="834" width="1000" height="46" fill="#0A1020" opacity="0.94"/><rect x="0" y="834" width="1000" height="1.5" fill="url(#bb_laser_727462493)"/><rect x="14.00" y="848.00" width="18.00" height="18.00" rx="4.73" fill="url(#mbTile_727462493bb)"/><rect x="14.00" y="848.00" width="18.00" height="18.00" rx="4.73" fill="url(#mbGlow_727462493bb)"/><rect x="14.00" y="848.00" width="18.00" height="18.00" rx="4.73" fill="url(#mbSheen_727462493bb)"/><path d="M18.95,860.20 L18.95,854.12 L22.10,857.50 L25.25,853.22 L25.25,860.20" fill="none" stroke="#15205a" stroke-opacity=".30" stroke-width="1.48" stroke-linecap="round" stroke-linejoin="round"/><path d="M18.95,859.70 L18.95,853.62 L22.10,857.00 L25.25,852.73 L25.25,859.70" fill="none" stroke="url(#mbInk_727462493bb)" stroke-width="1.48" stroke-linecap="round" stroke-linejoin="round"/><text x="41.0" y="862.0" fill="#ffffff" font-size="15" font-weight="800" font-family="sans-serif" letter-spacing="0.3">mastermind-x.com</text><circle cx="204.0" cy="857.0" r="1.5" fill="#3a4466"/><text x="215.0" y="861.0" fill="#93a7cc" font-size="11" font-weight="700" font-family="sans-serif" letter-spacing="1.4">AI STOCK SIGNALS</text><circle cx="376.4" cy="857.0" r="1.5" fill="#3a4466"/><text x="387.4" y="861.0" fill="#8899bb" font-size="11" font-family="sans-serif" letter-spacing="0.2">Daily stock signals</text><text x="986.0" y="860.0" fill="#3a4466" font-size="9" text-anchor="end" font-family="sans-serif">© 2026 Mastermind</text>
</svg>